<svg xmlns="http://www.w3.org/2000/svg" xmlns:xlink="http://www.w3.org/1999/xlink" width="720" zoomAndPan="magnify" viewBox="0 0 540 555.000006" height="740" preserveAspectRatio="xMidYMid meet" version="1.0"><defs><clipPath id="a4d994184f"><path d="M 0.484375 14.972656 L 539.511719 14.972656 L 539.511719 554 L 0.484375 554 Z M 0.484375 14.972656 " clip-rule="nonzero"/></clipPath></defs><g clip-path="url(#a4d994184f)"><path fill="#f4f4f4" d="M 115.351562 14.972656 L 424.648438 14.972656 C 487.832031 14.972656 539.515625 66.660156 539.515625 129.839844 L 539.515625 439.132812 C 539.515625 502.320312 487.832031 554 424.648438 554 L 115.351562 554 C 52.175781 554 0.484375 502.320312 0.484375 439.132812 L 0.484375 129.839844 C 0.484375 66.660156 52.175781 14.972656 115.351562 14.972656 Z M 115.351562 14.972656 " fill-opacity="1" fill-rule="evenodd"/></g><path fill="#83dbf1" d="M 144.710938 439.453125 C 146.449219 439.457031 148.179688 439.324219 149.894531 439.054688 C 151.613281 438.789062 153.300781 438.390625 154.953125 437.855469 C 156.609375 437.324219 158.214844 436.667969 159.765625 435.886719 C 161.316406 435.105469 162.800781 434.207031 164.210938 433.191406 C 165.625 432.179688 166.949219 431.0625 168.183594 429.839844 C 169.421875 428.621094 170.558594 427.3125 171.589844 425.914062 C 172.621094 424.515625 173.539062 423.046875 174.34375 421.503906 C 175.144531 419.960938 175.824219 418.367188 176.378906 416.71875 C 176.546875 416.21875 176.789062 415.753906 177.101562 415.328125 C 177.417969 414.902344 177.789062 414.535156 178.21875 414.226562 C 178.648438 413.914062 179.117188 413.679688 179.621094 413.515625 C 180.125 413.355469 180.640625 413.273438 181.171875 413.273438 L 289.152344 413.273438 L 289.152344 398.847656 L 280.308594 398.847656 C 279.976562 398.847656 279.648438 398.8125 279.320312 398.75 C 278.996094 398.683594 278.679688 398.589844 278.375 398.460938 C 278.066406 398.335938 277.773438 398.179688 277.5 397.992188 C 277.222656 397.808594 276.96875 397.601562 276.734375 397.363281 C 276.496094 397.128906 276.289062 396.875 276.105469 396.597656 C 275.917969 396.324219 275.765625 396.03125 275.636719 395.726562 C 275.507812 395.417969 275.414062 395.101562 275.347656 394.777344 C 275.285156 394.449219 275.25 394.121094 275.25 393.789062 L 275.25 368.957031 L 265.40625 368.957031 L 265.40625 393.785156 C 265.40625 394.117188 265.375 394.449219 265.308594 394.773438 C 265.242188 395.097656 265.148438 395.414062 265.019531 395.722656 C 264.894531 396.027344 264.738281 396.320312 264.554688 396.59375 C 264.367188 396.871094 264.160156 397.128906 263.925781 397.363281 C 263.691406 397.597656 263.433594 397.804688 263.160156 397.992188 C 262.882812 398.175781 262.589844 398.332031 262.285156 398.457031 C 261.976562 398.585938 261.660156 398.679688 261.335938 398.746094 C 261.011719 398.808594 260.679688 398.84375 260.347656 398.84375 L 239.105469 398.84375 C 238.773438 398.84375 238.445312 398.808594 238.117188 398.746094 C 237.792969 398.679688 237.476562 398.585938 237.171875 398.457031 C 236.863281 398.332031 236.570312 398.175781 236.296875 397.992188 C 236.019531 397.804688 235.765625 397.597656 235.53125 397.363281 C 235.296875 397.128906 235.085938 396.871094 234.902344 396.59375 C 234.714844 396.320312 234.5625 396.027344 234.433594 395.722656 C 234.308594 395.414062 234.210938 395.097656 234.144531 394.773438 C 234.082031 394.449219 234.050781 394.117188 234.050781 393.785156 L 234.050781 378.84375 L 224.203125 378.84375 L 224.203125 393.785156 C 224.203125 394.117188 224.171875 394.449219 224.105469 394.773438 C 224.042969 395.097656 223.945312 395.414062 223.820312 395.722656 C 223.691406 396.027344 223.535156 396.320312 223.351562 396.59375 C 223.167969 396.871094 222.957031 397.128906 222.722656 397.363281 C 222.488281 397.597656 222.234375 397.804688 221.957031 397.992188 C 221.679688 398.175781 221.390625 398.332031 221.082031 398.457031 C 220.777344 398.585938 220.460938 398.679688 220.132812 398.746094 C 219.808594 398.808594 219.480469 398.84375 219.148438 398.84375 L 181.171875 398.84375 C 180.640625 398.84375 180.125 398.761719 179.621094 398.597656 C 179.117188 398.4375 178.648438 398.203125 178.21875 397.890625 C 177.789062 397.582031 177.417969 397.214844 177.101562 396.789062 C 176.789062 396.363281 176.546875 395.898438 176.378906 395.398438 C 176.054688 394.433594 175.683594 393.484375 175.273438 392.550781 C 174.863281 391.621094 174.410156 390.707031 173.914062 389.816406 C 173.417969 388.925781 172.882812 388.0625 172.308594 387.21875 C 171.738281 386.378906 171.125 385.566406 170.476562 384.78125 C 169.828125 383.992188 169.144531 383.238281 168.425781 382.515625 C 167.710938 381.792969 166.960938 381.105469 166.179688 380.449219 C 165.398438 379.796875 164.589844 379.179688 163.753906 378.597656 C 162.917969 378.015625 162.054688 377.476562 161.167969 376.972656 C 160.28125 376.472656 159.375 376.011719 158.445312 375.59375 C 157.515625 375.175781 156.570312 374.800781 155.609375 374.46875 C 154.644531 374.136719 153.667969 373.847656 152.679688 373.605469 C 151.691406 373.363281 150.691406 373.164062 149.683594 373.011719 C 148.679688 372.859375 147.664062 372.757812 146.648438 372.695312 C 145.632812 372.636719 144.613281 372.625 143.597656 372.660156 C 142.578125 372.695312 141.5625 372.773438 140.554688 372.902344 C 139.542969 373.027344 138.539062 373.199219 137.542969 373.417969 C 136.550781 373.636719 135.566406 373.902344 134.597656 374.210938 C 133.625 374.519531 132.671875 374.871094 131.730469 375.265625 C 130.792969 375.664062 129.875 376.101562 128.976562 376.582031 C 128.078125 377.058594 127.203125 377.582031 126.351562 378.140625 C 125.5 378.699219 124.675781 379.296875 123.878906 379.933594 C 123.085938 380.566406 122.320312 381.238281 121.582031 381.945312 C 120.847656 382.648438 120.148438 383.386719 119.480469 384.15625 C 118.8125 384.925781 118.179688 385.722656 117.585938 386.550781 C 116.992188 387.378906 116.4375 388.230469 115.921875 389.109375 C 115.402344 389.988281 114.929688 390.886719 114.496094 391.808594 C 114.058594 392.730469 113.667969 393.667969 113.320312 394.625 C 112.972656 395.582031 112.667969 396.554688 112.410156 397.539062 C 112.148438 398.523438 111.933594 399.519531 111.765625 400.523438 C 111.597656 401.527344 111.476562 402.539062 111.398438 403.554688 C 111.324219 404.570312 111.292969 405.585938 111.3125 406.605469 C 111.328125 407.625 111.390625 408.640625 111.503906 409.652344 C 111.613281 410.664062 111.769531 411.671875 111.96875 412.671875 C 112.171875 413.667969 112.417969 414.65625 112.710938 415.632812 C 113.003906 416.605469 113.339844 417.566406 113.71875 418.511719 C 114.101562 419.457031 114.523438 420.382812 114.988281 421.289062 C 115.453125 422.195312 115.957031 423.078125 116.503906 423.941406 C 117.046875 424.800781 117.632812 425.632812 118.253906 426.441406 C 118.875 427.246094 119.53125 428.023438 120.226562 428.769531 C 120.917969 429.519531 121.644531 430.230469 122.402344 430.910156 C 123.160156 431.59375 123.949219 432.238281 124.765625 432.84375 C 125.582031 433.453125 126.425781 434.023438 127.292969 434.554688 C 128.164062 435.085938 129.054688 435.574219 129.96875 436.023438 C 130.882812 436.476562 131.816406 436.882812 132.769531 437.246094 C 133.71875 437.609375 134.683594 437.929688 135.664062 438.207031 C 136.644531 438.480469 137.636719 438.710938 138.640625 438.898438 C 139.640625 439.082031 140.648438 439.222656 141.664062 439.316406 C 142.675781 439.410156 143.695312 439.453125 144.710938 439.453125 Z M 144.710938 439.453125 " fill-opacity="1" fill-rule="nonzero"/><path fill="#83dbf1" d="M 195.582031 321.957031 L 331.363281 321.957031 C 331.59375 321.953125 331.816406 321.90625 332.03125 321.816406 C 332.246094 321.726562 332.433594 321.597656 332.597656 321.433594 C 332.761719 321.269531 332.890625 321.082031 332.980469 320.867188 C 333.070312 320.652344 333.117188 320.429688 333.121094 320.195312 L 333.121094 293.175781 C 333.117188 292.945312 333.070312 292.722656 332.976562 292.511719 C 332.886719 292.296875 332.757812 292.109375 332.59375 291.949219 C 332.429688 291.785156 332.242188 291.660156 332.027344 291.570312 C 331.816406 291.484375 331.59375 291.4375 331.363281 291.4375 L 195.582031 291.4375 C 195.351562 291.4375 195.128906 291.480469 194.914062 291.570312 C 194.703125 291.65625 194.515625 291.78125 194.351562 291.945312 C 194.1875 292.109375 194.0625 292.296875 193.976562 292.511719 C 193.886719 292.722656 193.84375 292.945312 193.84375 293.175781 L 193.84375 320.195312 C 193.84375 320.425781 193.890625 320.648438 193.976562 320.863281 C 194.066406 321.078125 194.191406 321.265625 194.355469 321.429688 C 194.515625 321.59375 194.703125 321.722656 194.917969 321.8125 C 195.128906 321.902344 195.351562 321.953125 195.582031 321.957031 Z M 288.832031 303.242188 C 288.597656 303.003906 288.390625 302.75 288.207031 302.472656 C 288.027344 302.199219 287.871094 301.90625 287.746094 301.601562 C 287.621094 301.292969 287.527344 300.980469 287.460938 300.652344 C 287.398438 300.328125 287.367188 300 287.367188 299.671875 C 287.371094 299.339844 287.402344 299.011719 287.46875 298.6875 C 287.53125 298.363281 287.628906 298.046875 287.757812 297.742188 C 287.882812 297.4375 288.039062 297.148438 288.222656 296.871094 C 288.40625 296.597656 288.617188 296.34375 288.847656 296.109375 C 289.082031 295.875 289.335938 295.664062 289.613281 295.480469 C 289.886719 295.296875 290.179688 295.140625 290.484375 295.015625 C 290.789062 294.886719 291.105469 294.792969 291.429688 294.726562 C 291.753906 294.660156 292.082031 294.628906 292.410156 294.628906 C 292.742188 294.625 293.070312 294.65625 293.394531 294.722656 C 293.71875 294.785156 294.035156 294.878906 294.339844 295.003906 C 294.648438 295.128906 294.9375 295.285156 295.214844 295.464844 C 295.492188 295.648438 295.746094 295.855469 295.980469 296.089844 L 299.671875 299.78125 L 303.363281 296.089844 C 303.601562 295.855469 303.855469 295.644531 304.132812 295.460938 C 304.40625 295.277344 304.699219 295.121094 305.003906 294.992188 C 305.3125 294.867188 305.628906 294.769531 305.953125 294.707031 C 306.28125 294.640625 306.609375 294.609375 306.941406 294.609375 C 307.273438 294.609375 307.601562 294.640625 307.925781 294.707031 C 308.253906 294.769531 308.570312 294.867188 308.875 294.992188 C 309.183594 295.121094 309.472656 295.277344 309.75 295.460938 C 310.027344 295.644531 310.28125 295.855469 310.515625 296.089844 C 310.75 296.324219 310.960938 296.578125 311.144531 296.855469 C 311.328125 297.132812 311.484375 297.421875 311.613281 297.730469 C 311.738281 298.035156 311.835938 298.351562 311.898438 298.679688 C 311.964844 299.003906 311.996094 299.332031 311.996094 299.664062 C 311.996094 299.996094 311.964844 300.324219 311.898438 300.652344 C 311.835938 300.976562 311.738281 301.292969 311.613281 301.601562 C 311.484375 301.90625 311.328125 302.199219 311.144531 302.472656 C 310.960938 302.75 310.75 303.003906 310.515625 303.242188 L 306.824219 306.929688 L 310.515625 310.621094 C 310.75 310.859375 310.960938 311.113281 311.144531 311.390625 C 311.328125 311.664062 311.484375 311.957031 311.613281 312.261719 C 311.738281 312.570312 311.835938 312.886719 311.898438 313.210938 C 311.964844 313.539062 311.996094 313.867188 311.996094 314.199219 C 311.996094 314.53125 311.964844 314.859375 311.898438 315.183594 C 311.835938 315.511719 311.738281 315.828125 311.613281 316.132812 C 311.484375 316.441406 311.328125 316.730469 311.144531 317.007812 C 310.960938 317.285156 310.75 317.539062 310.515625 317.773438 C 310.28125 318.007812 310.027344 318.21875 309.75 318.402344 C 309.472656 318.585938 309.183594 318.742188 308.875 318.871094 C 308.570312 318.996094 308.253906 319.09375 307.925781 319.15625 C 307.601562 319.222656 307.273438 319.253906 306.941406 319.253906 C 306.609375 319.253906 306.28125 319.222656 305.953125 319.15625 C 305.628906 319.09375 305.3125 318.996094 305.003906 318.871094 C 304.699219 318.742188 304.40625 318.585938 304.132812 318.402344 C 303.855469 318.21875 303.601562 318.007812 303.363281 317.773438 L 299.671875 314.082031 L 295.980469 317.773438 C 295.746094 318.003906 295.492188 318.214844 295.214844 318.394531 C 294.9375 318.578125 294.648438 318.730469 294.339844 318.859375 C 294.035156 318.984375 293.71875 319.078125 293.394531 319.140625 C 293.070312 319.203125 292.742188 319.234375 292.410156 319.234375 C 292.082031 319.234375 291.753906 319.199219 291.429688 319.136719 C 291.105469 319.070312 290.789062 318.972656 290.484375 318.847656 C 290.179688 318.71875 289.886719 318.566406 289.613281 318.378906 C 289.335938 318.195312 289.082031 317.988281 288.847656 317.753906 C 288.617188 317.519531 288.40625 317.265625 288.222656 316.992188 C 288.039062 316.714844 287.882812 316.425781 287.757812 316.121094 C 287.628906 315.8125 287.53125 315.5 287.46875 315.175781 C 287.402344 314.851562 287.371094 314.523438 287.367188 314.191406 C 287.367188 313.859375 287.398438 313.53125 287.460938 313.207031 C 287.527344 312.882812 287.621094 312.566406 287.746094 312.261719 C 287.871094 311.957031 288.027344 311.664062 288.207031 311.386719 C 288.390625 311.113281 288.597656 310.855469 288.832031 310.621094 L 292.523438 306.929688 Z M 252.640625 303.242188 C 252.402344 303.003906 252.195312 302.75 252.011719 302.472656 C 251.824219 302.199219 251.671875 301.90625 251.542969 301.601562 C 251.414062 301.292969 251.320312 300.976562 251.253906 300.652344 C 251.191406 300.324219 251.15625 299.996094 251.15625 299.664062 C 251.15625 299.332031 251.191406 299.003906 251.253906 298.679688 C 251.320312 298.351562 251.414062 298.035156 251.542969 297.730469 C 251.671875 297.421875 251.824219 297.132812 252.011719 296.855469 C 252.195312 296.578125 252.402344 296.324219 252.640625 296.089844 C 252.875 295.855469 253.128906 295.644531 253.40625 295.460938 C 253.679688 295.277344 253.972656 295.121094 254.28125 294.992188 C 254.585938 294.867188 254.902344 294.769531 255.226562 294.707031 C 255.554688 294.640625 255.882812 294.609375 256.214844 294.609375 C 256.546875 294.609375 256.875 294.640625 257.199219 294.707031 C 257.527344 294.769531 257.84375 294.867188 258.148438 294.992188 C 258.457031 295.121094 258.746094 295.277344 259.023438 295.460938 C 259.300781 295.644531 259.554688 295.855469 259.789062 296.089844 L 263.480469 299.78125 L 267.171875 296.089844 C 267.40625 295.855469 267.664062 295.644531 267.9375 295.460938 C 268.214844 295.277344 268.507812 295.121094 268.8125 294.992188 C 269.121094 294.867188 269.4375 294.769531 269.761719 294.707031 C 270.085938 294.640625 270.417969 294.609375 270.75 294.609375 C 271.082031 294.609375 271.410156 294.640625 271.734375 294.707031 C 272.058594 294.769531 272.375 294.867188 272.683594 294.992188 C 272.988281 295.121094 273.28125 295.277344 273.558594 295.460938 C 273.832031 295.644531 274.089844 295.855469 274.324219 296.089844 C 274.558594 296.324219 274.769531 296.578125 274.953125 296.855469 C 275.136719 297.132812 275.292969 297.421875 275.421875 297.730469 C 275.546875 298.035156 275.644531 298.351562 275.707031 298.679688 C 275.773438 299.003906 275.804688 299.332031 275.804688 299.664062 C 275.804688 299.996094 275.773438 300.324219 275.707031 300.652344 C 275.644531 300.976562 275.546875 301.292969 275.421875 301.601562 C 275.292969 301.90625 275.136719 302.199219 274.953125 302.472656 C 274.769531 302.75 274.558594 303.003906 274.324219 303.242188 L 270.632812 306.929688 L 274.324219 310.621094 C 274.558594 310.859375 274.769531 311.113281 274.953125 311.390625 C 275.136719 311.664062 275.292969 311.957031 275.417969 312.261719 C 275.546875 312.570312 275.640625 312.886719 275.707031 313.210938 C 275.769531 313.535156 275.800781 313.867188 275.800781 314.199219 C 275.800781 314.53125 275.769531 314.859375 275.703125 315.183594 C 275.640625 315.507812 275.542969 315.824219 275.417969 316.132812 C 275.289062 316.4375 275.132812 316.730469 274.949219 317.003906 C 274.765625 317.28125 274.554688 317.535156 274.320312 317.769531 C 274.085938 318.007812 273.832031 318.214844 273.554688 318.398438 C 273.277344 318.585938 272.988281 318.738281 272.679688 318.867188 C 272.375 318.992188 272.058594 319.089844 271.734375 319.15625 C 271.40625 319.21875 271.078125 319.253906 270.746094 319.253906 C 270.414062 319.253906 270.085938 319.21875 269.761719 319.15625 C 269.4375 319.089844 269.121094 318.996094 268.8125 318.867188 C 268.507812 318.742188 268.214844 318.585938 267.9375 318.402344 C 267.664062 318.21875 267.40625 318.007812 267.171875 317.773438 L 263.480469 314.082031 L 259.789062 317.773438 C 259.554688 318.007812 259.300781 318.214844 259.023438 318.402344 C 258.746094 318.585938 258.457031 318.742188 258.148438 318.867188 C 257.84375 318.996094 257.527344 319.089844 257.203125 319.15625 C 256.875 319.21875 256.546875 319.25 256.214844 319.25 C 255.882812 319.25 255.554688 319.21875 255.230469 319.152344 C 254.902344 319.089844 254.589844 318.992188 254.28125 318.867188 C 253.976562 318.738281 253.683594 318.582031 253.40625 318.398438 C 253.132812 318.214844 252.875 318.003906 252.640625 317.769531 C 252.40625 317.535156 252.199219 317.28125 252.011719 317.003906 C 251.828125 316.726562 251.671875 316.4375 251.546875 316.128906 C 251.417969 315.824219 251.324219 315.507812 251.257812 315.183594 C 251.191406 314.855469 251.160156 314.527344 251.160156 314.195312 C 251.160156 313.863281 251.191406 313.535156 251.257812 313.210938 C 251.320312 312.886719 251.417969 312.570312 251.542969 312.261719 C 251.671875 311.957031 251.828125 311.664062 252.011719 311.386719 C 252.195312 311.113281 252.40625 310.855469 252.640625 310.621094 L 256.332031 306.929688 Z M 216.429688 303.242188 C 216.191406 303.007812 215.976562 302.753906 215.785156 302.476562 C 215.597656 302.199219 215.4375 301.90625 215.304688 301.601562 C 215.171875 301.292969 215.074219 300.972656 215.003906 300.644531 C 214.9375 300.320312 214.902344 299.988281 214.898438 299.652344 C 214.894531 299.316406 214.925781 298.984375 214.988281 298.65625 C 215.054688 298.328125 215.148438 298.007812 215.277344 297.699219 C 215.402344 297.390625 215.558594 297.09375 215.742188 296.816406 C 215.929688 296.539062 216.140625 296.277344 216.375 296.042969 C 216.613281 295.804688 216.871094 295.59375 217.148438 295.40625 C 217.429688 295.222656 217.722656 295.066406 218.03125 294.9375 C 218.339844 294.8125 218.660156 294.714844 218.988281 294.652344 C 219.316406 294.585938 219.648438 294.558594 219.984375 294.558594 C 220.320312 294.5625 220.652344 294.59375 220.980469 294.664062 C 221.308594 294.730469 221.625 294.832031 221.933594 294.960938 C 222.242188 295.09375 222.535156 295.253906 222.808594 295.441406 C 223.085938 295.632812 223.339844 295.84375 223.574219 296.085938 L 227.28125 299.785156 L 230.984375 296.085938 C 231.21875 295.851562 231.476562 295.644531 231.753906 295.464844 C 232.027344 295.28125 232.320312 295.128906 232.625 295.003906 C 232.933594 294.878906 233.246094 294.78125 233.570312 294.71875 C 233.898438 294.65625 234.222656 294.625 234.554688 294.625 C 234.886719 294.628906 235.214844 294.660156 235.539062 294.726562 C 235.863281 294.792969 236.175781 294.886719 236.480469 295.015625 C 236.789062 295.144531 237.078125 295.296875 237.351562 295.484375 C 237.628906 295.667969 237.882812 295.875 238.113281 296.109375 C 238.347656 296.34375 238.558594 296.597656 238.742188 296.875 C 238.925781 297.148438 239.082031 297.4375 239.207031 297.746094 C 239.335938 298.050781 239.429688 298.363281 239.496094 298.6875 C 239.558594 299.011719 239.59375 299.339844 239.59375 299.671875 C 239.59375 300.003906 239.5625 300.332031 239.5 300.65625 C 239.4375 300.980469 239.339844 301.296875 239.214844 301.601562 C 239.089844 301.90625 238.9375 302.199219 238.753906 302.472656 C 238.570312 302.75 238.363281 303.003906 238.128906 303.242188 L 234.429688 306.929688 L 238.128906 310.617188 C 238.367188 310.851562 238.578125 311.109375 238.765625 311.382812 C 238.953125 311.660156 239.109375 311.953125 239.238281 312.257812 C 239.367188 312.566406 239.464844 312.882812 239.53125 313.210938 C 239.597656 313.535156 239.632812 313.867188 239.632812 314.199219 C 239.632812 314.53125 239.601562 314.863281 239.539062 315.1875 C 239.476562 315.515625 239.378906 315.832031 239.253906 316.140625 C 239.125 316.449219 238.96875 316.742188 238.785156 317.019531 C 238.601562 317.296875 238.390625 317.554688 238.15625 317.789062 C 237.917969 318.023438 237.664062 318.234375 237.386719 318.421875 C 237.109375 318.605469 236.816406 318.761719 236.507812 318.886719 C 236.199219 319.015625 235.882812 319.113281 235.558594 319.175781 C 235.230469 319.242188 234.898438 319.273438 234.566406 319.273438 C 234.234375 319.269531 233.902344 319.238281 233.578125 319.171875 C 233.25 319.105469 232.933594 319.007812 232.625 318.878906 C 232.320312 318.753906 232.027344 318.59375 231.75 318.410156 C 231.476562 318.222656 231.21875 318.011719 230.984375 317.773438 L 227.28125 314.074219 L 223.574219 317.773438 C 223.339844 318.003906 223.082031 318.207031 222.808594 318.386719 C 222.53125 318.566406 222.242188 318.71875 221.933594 318.839844 C 221.628906 318.964844 221.316406 319.054688 220.992188 319.117188 C 220.667969 319.179688 220.339844 319.207031 220.011719 319.207031 C 219.683594 319.203125 219.359375 319.167969 219.035156 319.101562 C 218.710938 319.035156 218.398438 318.941406 218.097656 318.8125 C 217.792969 318.683594 217.503906 318.53125 217.230469 318.347656 C 216.957031 318.164062 216.703125 317.953125 216.472656 317.722656 C 216.238281 317.488281 216.03125 317.234375 215.847656 316.960938 C 215.664062 316.6875 215.511719 316.398438 215.382812 316.097656 C 215.257812 315.792969 215.160156 315.480469 215.09375 315.15625 C 215.027344 314.832031 214.996094 314.507812 214.992188 314.179688 C 214.992188 313.847656 215.023438 313.523438 215.082031 313.199219 C 215.144531 312.875 215.238281 312.5625 215.359375 312.257812 C 215.484375 311.953125 215.636719 311.660156 215.816406 311.386719 C 215.996094 311.109375 216.199219 310.855469 216.429688 310.617188 L 220.128906 306.929688 Z M 216.429688 303.242188 " fill-opacity="1" fill-rule="nonzero"/><path fill="#83dbf1" d="M 327.164062 241.257812 L 341.492188 241.257812 L 341.492188 187.648438 C 341.488281 186.375 341.453125 185.105469 341.386719 183.832031 C 341.320312 182.558594 341.21875 181.289062 341.089844 180.023438 C 340.960938 178.757812 340.800781 177.492188 340.609375 176.234375 C 340.417969 174.972656 340.199219 173.71875 339.945312 172.472656 C 339.691406 171.222656 339.410156 169.980469 339.097656 168.746094 C 338.78125 167.511719 338.441406 166.285156 338.066406 165.070312 C 337.691406 163.851562 337.289062 162.644531 336.859375 161.445312 C 336.425781 160.246094 335.964844 159.058594 335.472656 157.886719 C 334.980469 156.710938 334.460938 155.546875 333.914062 154.398438 C 333.367188 153.246094 332.792969 152.109375 332.1875 150.988281 C 331.585938 149.867188 330.953125 148.761719 330.296875 147.667969 C 329.640625 146.578125 328.957031 145.503906 328.246094 144.449219 C 327.535156 143.390625 326.800781 142.351562 326.039062 141.328125 C 325.277344 140.308594 324.492188 139.304688 323.683594 138.324219 C 322.871094 137.339844 322.039062 136.378906 321.183594 135.433594 C 320.324219 134.492188 319.445312 133.574219 318.542969 132.671875 C 317.640625 131.773438 316.714844 130.898438 315.769531 130.042969 C 314.824219 129.191406 313.859375 128.359375 312.875 127.554688 C 311.886719 126.746094 310.882812 125.964844 309.859375 125.207031 C 308.835938 124.453125 307.792969 123.71875 306.734375 123.011719 C 305.671875 122.308594 304.597656 121.628906 303.503906 120.972656 C 302.410156 120.320312 301.300781 119.695312 300.175781 119.09375 C 299.054688 118.496094 297.914062 117.925781 296.761719 117.382812 C 295.609375 116.835938 294.445312 116.324219 293.269531 115.835938 C 292.09375 115.351562 290.902344 114.894531 289.703125 114.464844 C 288.503906 114.035156 287.292969 113.636719 286.074219 113.269531 C 284.855469 112.898438 283.628906 112.5625 282.394531 112.253906 C 281.15625 111.945312 279.914062 111.664062 278.664062 111.417969 C 277.417969 111.167969 276.160156 110.953125 274.902344 110.765625 C 273.640625 110.578125 272.378906 110.425781 271.109375 110.300781 C 269.84375 110.175781 268.574219 110.082031 267.300781 110.019531 C 266.027344 109.957031 264.753906 109.925781 263.480469 109.925781 C 262.207031 109.925781 260.933594 109.957031 259.664062 110.019531 C 258.390625 110.082031 257.121094 110.175781 255.851562 110.300781 C 254.585938 110.425781 253.320312 110.578125 252.0625 110.765625 C 250.800781 110.953125 249.546875 111.167969 248.296875 111.417969 C 247.046875 111.664062 245.804688 111.945312 244.570312 112.253906 C 243.332031 112.5625 242.105469 112.898438 240.886719 113.269531 C 239.667969 113.636719 238.457031 114.035156 237.257812 114.464844 C 236.058594 114.894531 234.871094 115.351562 233.695312 115.835938 C 232.515625 116.324219 231.351562 116.835938 230.199219 117.382812 C 229.046875 117.925781 227.910156 118.496094 226.785156 119.09375 C 225.660156 119.695312 224.554688 120.320312 223.460938 120.972656 C 222.367188 121.628906 221.289062 122.308594 220.230469 123.011719 C 219.167969 123.71875 218.128906 124.449219 217.101562 125.207031 C 216.078125 125.964844 215.074219 126.746094 214.089844 127.554688 C 213.101562 128.359375 212.136719 129.191406 211.191406 130.042969 C 210.246094 130.898438 209.324219 131.773438 208.421875 132.671875 C 207.519531 133.574219 206.636719 134.492188 205.78125 135.433594 C 204.921875 136.378906 204.089844 137.339844 203.28125 138.324219 C 202.46875 139.304688 201.683594 140.308594 200.921875 141.328125 C 200.164062 142.351562 199.425781 143.390625 198.714844 144.449219 C 198.007812 145.503906 197.324219 146.578125 196.664062 147.667969 C 196.007812 148.761719 195.378906 149.867188 194.773438 150.988281 C 194.171875 152.109375 193.59375 153.246094 193.046875 154.398438 C 192.5 155.546875 191.980469 156.710938 191.492188 157.886719 C 191 159.058594 190.539062 160.246094 190.105469 161.445312 C 189.671875 162.644531 189.269531 163.851562 188.898438 165.070312 C 188.523438 166.285156 188.179688 167.511719 187.867188 168.746094 C 187.554688 169.980469 187.269531 171.222656 187.019531 172.472656 C 186.765625 173.71875 186.542969 174.972656 186.351562 176.234375 C 186.160156 177.492188 186 178.757812 185.871094 180.023438 C 185.742188 181.289062 185.644531 182.558594 185.578125 183.832031 C 185.511719 185.105469 185.472656 186.375 185.46875 187.648438 L 185.46875 207.835938 L 199.777344 207.835938 L 199.777344 190.457031 C 199.773438 189.410156 199.792969 188.367188 199.839844 187.320312 C 199.886719 186.277344 199.960938 185.234375 200.058594 184.195312 C 200.160156 183.15625 200.28125 182.117188 200.433594 181.082031 C 200.582031 180.046875 200.757812 179.019531 200.957031 177.992188 C 201.15625 176.964844 201.382812 175.945312 201.632812 174.929688 C 201.882812 173.917969 202.15625 172.910156 202.457031 171.90625 C 202.757812 170.90625 203.082031 169.914062 203.429688 168.929688 C 203.78125 167.941406 204.152344 166.96875 204.550781 166 C 204.945312 165.035156 205.367188 164.078125 205.8125 163.132812 C 206.253906 162.183594 206.722656 161.25 207.214844 160.328125 C 207.703125 159.402344 208.214844 158.492188 208.75 157.59375 C 209.285156 156.699219 209.84375 155.8125 210.421875 154.941406 C 211 154.074219 211.597656 153.21875 212.21875 152.375 C 212.839844 151.535156 213.480469 150.710938 214.140625 149.898438 C 214.800781 149.089844 215.484375 148.296875 216.183594 147.523438 C 216.882812 146.746094 217.601562 145.988281 218.339844 145.246094 C 219.078125 144.507812 219.832031 143.785156 220.605469 143.082031 C 221.378906 142.378906 222.167969 141.695312 222.976562 141.03125 C 223.78125 140.367188 224.605469 139.722656 225.441406 139.097656 C 226.28125 138.472656 227.132812 137.871094 228.003906 137.289062 C 228.871094 136.707031 229.753906 136.144531 230.648438 135.609375 C 231.542969 135.070312 232.453125 134.550781 233.375 134.058594 C 234.292969 133.566406 235.226562 133.09375 236.171875 132.644531 C 237.117188 132.199219 238.070312 131.773438 239.035156 131.371094 C 240 130.972656 240.976562 130.59375 241.960938 130.242188 C 242.941406 129.890625 243.933594 129.558594 244.933594 129.257812 C 245.933594 128.953125 246.941406 128.671875 247.953125 128.417969 C 248.96875 128.164062 249.988281 127.933594 251.011719 127.730469 C 252.039062 127.523438 253.066406 127.347656 254.101562 127.191406 C 255.132812 127.039062 256.171875 126.910156 257.210938 126.808594 C 258.25 126.703125 259.292969 126.628906 260.335938 126.578125 C 261.382812 126.523438 262.425781 126.5 263.472656 126.5 C 264.515625 126.5 265.558594 126.523438 266.605469 126.578125 C 267.648438 126.628906 268.691406 126.703125 269.730469 126.808594 C 270.769531 126.910156 271.808594 127.039062 272.839844 127.191406 C 273.875 127.347656 274.902344 127.523438 275.929688 127.730469 C 276.953125 127.933594 277.972656 128.164062 278.988281 128.417969 C 280 128.671875 281.007812 128.953125 282.007812 129.257812 C 283.007812 129.558594 284 129.890625 284.984375 130.242188 C 285.964844 130.59375 286.941406 130.972656 287.90625 131.371094 C 288.871094 131.773438 289.824219 132.199219 290.769531 132.644531 C 291.714844 133.09375 292.648438 133.566406 293.566406 134.058594 C 294.488281 134.550781 295.398438 135.070312 296.292969 135.605469 C 297.1875 136.144531 298.070312 136.707031 298.9375 137.289062 C 299.808594 137.871094 300.660156 138.472656 301.5 139.097656 C 302.335938 139.722656 303.160156 140.367188 303.964844 141.03125 C 304.773438 141.695312 305.5625 142.378906 306.335938 143.082031 C 307.109375 143.785156 307.863281 144.507812 308.601562 145.246094 C 309.339844 145.988281 310.058594 146.746094 310.757812 147.523438 C 311.457031 148.296875 312.140625 149.089844 312.800781 149.898438 C 313.460938 150.710938 314.101562 151.535156 314.722656 152.375 C 315.34375 153.21875 315.941406 154.074219 316.519531 154.941406 C 317.101562 155.8125 317.65625 156.699219 318.191406 157.59375 C 318.726562 158.492188 319.238281 159.402344 319.730469 160.328125 C 320.21875 161.25 320.6875 162.183594 321.128906 163.132812 C 321.574219 164.078125 321.996094 165.035156 322.390625 166 C 322.789062 166.96875 323.160156 167.941406 323.511719 168.929688 C 323.859375 169.914062 324.183594 170.90625 324.484375 171.90625 C 324.785156 172.910156 325.058594 173.917969 325.308594 174.929688 C 325.558594 175.945312 325.785156 176.964844 325.984375 177.992188 C 326.1875 179.019531 326.359375 180.046875 326.511719 181.082031 C 326.660156 182.117188 326.785156 183.15625 326.882812 184.195312 C 326.980469 185.234375 327.054688 186.277344 327.101562 187.320312 C 327.148438 188.367188 327.167969 189.410156 327.164062 190.457031 Z M 327.164062 241.257812 " fill-opacity="1" fill-rule="nonzero"/><path fill="#83dbf1" d="M 361.289062 400.21875 L 359.84375 416.089844 L 374.484375 409.8125 C 375.121094 409.539062 375.785156 409.402344 376.476562 409.402344 C 377.171875 409.402344 377.835938 409.539062 378.472656 409.8125 L 393.097656 416.089844 L 391.667969 400.214844 C 391.605469 399.527344 391.679688 398.855469 391.894531 398.195312 C 392.109375 397.539062 392.441406 396.949219 392.898438 396.429688 L 403.378906 384.453125 L 387.84375 380.925781 C 387.167969 380.773438 386.550781 380.492188 385.988281 380.085938 C 385.429688 379.679688 384.972656 379.175781 384.617188 378.582031 L 376.472656 364.90625 L 368.308594 378.585938 C 367.957031 379.179688 367.5 379.679688 366.9375 380.085938 C 366.378906 380.492188 365.761719 380.773438 365.085938 380.925781 L 349.570312 384.449219 L 360.054688 396.429688 C 360.511719 396.953125 360.847656 397.539062 361.0625 398.199219 C 361.273438 398.855469 361.351562 399.53125 361.289062 400.21875 Z M 361.289062 400.21875 " fill-opacity="1" fill-rule="nonzero"/><path fill="#1a66bc" d="M 144.710938 449.566406 C 146.824219 449.570312 148.921875 449.417969 151.007812 449.117188 C 153.097656 448.8125 155.152344 448.359375 157.175781 447.757812 C 159.195312 447.152344 161.164062 446.40625 163.078125 445.519531 C 164.992188 444.628906 166.828125 443.605469 168.59375 442.449219 C 170.359375 441.292969 172.03125 440.015625 173.609375 438.613281 C 175.1875 437.214844 176.65625 435.707031 178.011719 434.09375 C 179.371094 432.480469 180.605469 430.773438 181.71875 428.980469 C 182.828125 427.1875 183.804688 425.324219 184.640625 423.386719 L 290.113281 423.386719 C 290.714844 423.386719 291.308594 423.328125 291.898438 423.210938 C 292.488281 423.089844 293.058594 422.917969 293.613281 422.6875 C 294.167969 422.457031 294.695312 422.175781 295.195312 421.839844 C 295.695312 421.507812 296.15625 421.128906 296.582031 420.703125 C 297.003906 420.277344 297.382812 419.816406 297.71875 419.316406 C 298.050781 418.820312 298.335938 418.292969 298.5625 417.738281 C 298.792969 417.183594 298.96875 416.609375 299.085938 416.019531 C 299.203125 415.433594 299.261719 414.835938 299.265625 414.238281 L 299.265625 413.234375 L 315.363281 413.234375 C 316.195312 420.039062 318.039062 426.558594 320.902344 432.785156 C 329.019531 449.804688 345.742188 460.992188 375.136719 469.082031 L 376.476562 469.449219 L 377.820312 469.082031 C 407.210938 460.992188 423.933594 449.800781 432.050781 432.785156 C 439.605469 416.949219 439.109375 397.539062 438.484375 372.964844 C 438.292969 365.476562 438.09375 357.730469 438.09375 349.351562 L 438.09375 345.632812 L 381.535156 327.988281 L 381.535156 271.355469 C 381.53125 270.371094 381.484375 269.394531 381.386719 268.417969 C 381.289062 267.441406 381.144531 266.46875 380.953125 265.507812 C 380.757812 264.542969 380.519531 263.59375 380.234375 262.652344 C 379.953125 261.714844 379.621094 260.792969 379.246094 259.882812 C 378.871094 258.976562 378.453125 258.089844 377.992188 257.222656 C 377.527344 256.359375 377.027344 255.515625 376.480469 254.699219 C 375.9375 253.882812 375.355469 253.09375 374.734375 252.332031 C 374.113281 251.574219 373.457031 250.84375 372.765625 250.148438 C 372.070312 249.453125 371.347656 248.792969 370.589844 248.167969 C 369.832031 247.542969 369.046875 246.957031 368.234375 246.40625 C 367.417969 245.859375 366.582031 245.351562 365.714844 244.886719 C 364.851562 244.417969 363.96875 243.996094 363.0625 243.617188 C 362.160156 243.234375 361.238281 242.898438 360.300781 242.609375 C 359.359375 242.320312 358.410156 242.078125 357.449219 241.878906 C 356.488281 241.683594 355.519531 241.53125 354.542969 241.429688 C 353.566406 241.328125 352.585938 241.273438 351.605469 241.265625 L 351.605469 187.648438 C 351.601562 186.210938 351.558594 184.773438 351.484375 183.335938 C 351.410156 181.898438 351.300781 180.464844 351.152344 179.03125 C 351.007812 177.601562 350.828125 176.175781 350.613281 174.75 C 350.394531 173.328125 350.144531 171.910156 349.859375 170.5 C 349.574219 169.089844 349.257812 167.6875 348.902344 166.292969 C 348.546875 164.898438 348.160156 163.511719 347.738281 162.136719 C 347.316406 160.761719 346.863281 159.398438 346.375 158.042969 C 345.886719 156.6875 345.363281 155.347656 344.808594 154.019531 C 344.257812 152.691406 343.667969 151.378906 343.050781 150.078125 C 342.433594 148.78125 341.78125 147.496094 341.101562 146.230469 C 340.421875 144.960938 339.707031 143.710938 338.964844 142.480469 C 338.222656 141.246094 337.449219 140.03125 336.648438 138.835938 C 335.847656 137.644531 335.015625 136.46875 334.15625 135.316406 C 333.296875 134.160156 332.410156 133.027344 331.492188 131.917969 C 330.578125 130.808594 329.636719 129.71875 328.667969 128.65625 C 327.699219 127.589844 326.707031 126.550781 325.6875 125.535156 C 324.667969 124.519531 323.625 123.527344 322.554688 122.5625 C 321.488281 121.597656 320.398438 120.660156 319.285156 119.75 C 318.171875 118.839844 317.035156 117.957031 315.878906 117.101562 C 314.71875 116.242188 313.542969 115.417969 312.34375 114.621094 C 311.148438 113.820312 309.933594 113.054688 308.695312 112.316406 C 307.460938 111.578125 306.207031 110.867188 304.9375 110.191406 C 303.667969 109.515625 302.382812 108.871094 301.082031 108.253906 C 299.78125 107.640625 298.464844 107.058594 297.132812 106.511719 C 295.804688 105.960938 294.460938 105.445312 293.105469 104.960938 C 291.75 104.476562 290.386719 104.027344 289.007812 103.609375 C 287.628906 103.191406 286.242188 102.808594 284.847656 102.460938 C 283.453125 102.113281 282.046875 101.796875 280.636719 101.515625 C 279.226562 101.238281 277.808594 100.992188 276.382812 100.78125 C 274.960938 100.570312 273.53125 100.394531 272.101562 100.253906 C 270.667969 100.113281 269.234375 100.007812 267.796875 99.9375 C 266.359375 99.867188 264.921875 99.832031 263.480469 99.832031 C 262.042969 99.832031 260.605469 99.867188 259.167969 99.9375 C 257.730469 100.007812 256.292969 100.113281 254.863281 100.253906 C 253.429688 100.394531 252.003906 100.570312 250.578125 100.78125 C 249.15625 100.992188 247.738281 101.238281 246.328125 101.515625 C 244.914062 101.796875 243.511719 102.113281 242.113281 102.460938 C 240.71875 102.808594 239.332031 103.191406 237.953125 103.609375 C 236.578125 104.027344 235.210938 104.476562 233.855469 104.960938 C 232.5 105.445312 231.15625 105.960938 229.828125 106.511719 C 228.5 107.058594 227.183594 107.640625 225.882812 108.253906 C 224.578125 108.871094 223.292969 109.515625 222.023438 110.191406 C 220.753906 110.867188 219.5 111.578125 218.265625 112.316406 C 217.03125 113.054688 215.816406 113.820312 214.617188 114.621094 C 213.417969 115.417969 212.242188 116.242188 211.085938 117.101562 C 209.929688 117.957031 208.792969 118.839844 207.679688 119.75 C 206.566406 120.660156 205.472656 121.597656 204.40625 122.5625 C 203.339844 123.527344 202.296875 124.519531 201.277344 125.535156 C 200.257812 126.550781 199.261719 127.589844 198.292969 128.65625 C 197.324219 129.71875 196.382812 130.808594 195.46875 131.917969 C 194.554688 133.027344 193.667969 134.160156 192.808594 135.316406 C 191.949219 136.46875 191.117188 137.644531 190.316406 138.835938 C 189.511719 140.03125 188.738281 141.246094 187.996094 142.480469 C 187.253906 143.710938 186.542969 144.960938 185.863281 146.230469 C 185.179688 147.496094 184.53125 148.78125 183.910156 150.078125 C 183.292969 151.378906 182.707031 152.691406 182.152344 154.019531 C 181.597656 155.347656 181.078125 156.6875 180.589844 158.042969 C 180.101562 159.398438 179.644531 160.761719 179.222656 162.136719 C 178.800781 163.511719 178.414062 164.898438 178.0625 166.292969 C 177.707031 167.6875 177.386719 169.089844 177.101562 170.5 C 176.816406 171.910156 176.566406 173.328125 176.351562 174.75 C 176.136719 176.175781 175.957031 177.601562 175.808594 179.03125 C 175.664062 180.464844 175.554688 181.898438 175.476562 183.335938 C 175.402344 184.773438 175.363281 186.210938 175.355469 187.648438 L 175.355469 212.890625 C 175.355469 213.222656 175.390625 213.550781 175.453125 213.878906 C 175.519531 214.203125 175.613281 214.519531 175.742188 214.824219 C 175.867188 215.132812 176.023438 215.421875 176.210938 215.699219 C 176.394531 215.976562 176.601562 216.230469 176.839844 216.464844 C 177.074219 216.699219 177.328125 216.910156 177.605469 217.09375 C 177.878906 217.277344 178.171875 217.433594 178.476562 217.5625 C 178.785156 217.6875 179.101562 217.785156 179.425781 217.851562 C 179.753906 217.914062 180.082031 217.945312 180.414062 217.945312 L 204.828125 217.945312 C 205.160156 217.945312 205.488281 217.914062 205.816406 217.851562 C 206.140625 217.785156 206.457031 217.6875 206.761719 217.5625 C 207.070312 217.433594 207.363281 217.28125 207.636719 217.09375 C 207.914062 216.910156 208.167969 216.699219 208.402344 216.464844 C 208.640625 216.230469 208.847656 215.976562 209.035156 215.699219 C 209.21875 215.425781 209.375 215.132812 209.5 214.824219 C 209.628906 214.519531 209.722656 214.203125 209.789062 213.878906 C 209.851562 213.550781 209.886719 213.222656 209.886719 212.890625 L 209.886719 190.457031 C 209.859375 188.683594 209.921875 186.917969 210.074219 185.152344 C 210.222656 183.390625 210.460938 181.636719 210.785156 179.894531 C 211.109375 178.15625 211.519531 176.433594 212.011719 174.734375 C 212.507812 173.035156 213.085938 171.363281 213.746094 169.71875 C 214.40625 168.074219 215.144531 166.46875 215.964844 164.898438 C 216.785156 163.332031 217.679688 161.804688 218.652344 160.324219 C 219.621094 158.84375 220.664062 157.414062 221.777344 156.035156 C 222.890625 154.660156 224.066406 153.339844 225.308594 152.078125 C 226.554688 150.816406 227.855469 149.621094 229.21875 148.488281 C 230.578125 147.359375 231.992188 146.296875 233.460938 145.304688 C 234.929688 144.3125 236.441406 143.398438 238 142.554688 C 239.558594 141.714844 241.152344 140.953125 242.785156 140.269531 C 244.417969 139.585938 246.082031 138.984375 247.777344 138.464844 C 249.46875 137.945312 251.183594 137.511719 252.917969 137.164062 C 254.65625 136.816406 256.40625 136.554688 258.167969 136.378906 C 259.929688 136.203125 261.695312 136.117188 263.464844 136.117188 C 265.238281 136.117188 267.003906 136.203125 268.765625 136.378906 C 270.527344 136.554688 272.277344 136.816406 274.011719 137.164062 C 275.75 137.511719 277.464844 137.945312 279.15625 138.464844 C 280.847656 138.984375 282.511719 139.585938 284.144531 140.269531 C 285.78125 140.953125 287.375 141.714844 288.933594 142.554688 C 290.492188 143.398438 292.003906 144.3125 293.472656 145.304688 C 294.9375 146.296875 296.351562 147.359375 297.714844 148.488281 C 299.078125 149.621094 300.378906 150.816406 301.621094 152.078125 C 302.867188 153.339844 304.042969 154.660156 305.15625 156.035156 C 306.269531 157.414062 307.308594 158.84375 308.28125 160.324219 C 309.25 161.804688 310.148438 163.332031 310.964844 164.898438 C 311.785156 166.46875 312.527344 168.074219 313.1875 169.71875 C 313.847656 171.363281 314.425781 173.035156 314.917969 174.734375 C 315.414062 176.433594 315.824219 178.15625 316.148438 179.894531 C 316.472656 181.636719 316.707031 183.390625 316.859375 185.152344 C 317.007812 186.917969 317.070312 188.683594 317.046875 190.457031 L 317.046875 241.257812 L 175.519531 241.257812 C 174.535156 241.261719 173.554688 241.308594 172.574219 241.40625 C 171.59375 241.503906 170.617188 241.648438 169.652344 241.84375 C 168.6875 242.035156 167.730469 242.277344 166.789062 242.5625 C 165.847656 242.847656 164.921875 243.179688 164.011719 243.558594 C 163.101562 243.9375 162.210938 244.355469 161.34375 244.820312 C 160.472656 245.285156 159.628906 245.792969 158.808594 246.339844 C 157.992188 246.886719 157.199219 247.472656 156.4375 248.097656 C 155.675781 248.722656 154.949219 249.386719 154.25 250.082031 C 153.554688 250.777344 152.894531 251.507812 152.269531 252.269531 C 151.644531 253.03125 151.058594 253.820312 150.511719 254.640625 C 149.960938 255.460938 149.457031 256.304688 148.992188 257.171875 C 148.527344 258.039062 148.105469 258.929688 147.726562 259.839844 C 147.351562 260.75 147.019531 261.675781 146.730469 262.621094 C 146.445312 263.5625 146.207031 264.515625 146.011719 265.484375 C 145.820312 266.449219 145.675781 267.421875 145.578125 268.402344 C 145.480469 269.382812 145.429688 270.367188 145.429688 271.351562 L 145.429688 362.539062 C 145.191406 362.539062 144.953125 362.523438 144.710938 362.523438 C 143.289062 362.527344 141.867188 362.597656 140.449219 362.738281 C 139.03125 362.878906 137.625 363.089844 136.230469 363.367188 C 134.832031 363.648438 133.453125 363.996094 132.089844 364.410156 C 130.726562 364.824219 129.386719 365.304688 128.070312 365.851562 C 126.757812 366.394531 125.46875 367.003906 124.214844 367.675781 C 122.957031 368.351562 121.738281 369.082031 120.554688 369.875 C 119.371094 370.667969 118.230469 371.515625 117.128906 372.417969 C 116.027344 373.324219 114.972656 374.277344 113.96875 375.285156 C 112.960938 376.292969 112.003906 377.347656 111.101562 378.449219 C 110.199219 379.550781 109.351562 380.695312 108.5625 381.878906 C 107.769531 383.0625 107.039062 384.285156 106.367188 385.542969 C 105.695312 386.796875 105.089844 388.085938 104.542969 389.398438 C 104 390.714844 103.519531 392.054688 103.105469 393.417969 C 102.695312 394.78125 102.347656 396.164062 102.070312 397.558594 C 101.792969 398.957031 101.585938 400.363281 101.445312 401.78125 C 101.304688 403.199219 101.234375 404.621094 101.234375 406.042969 C 101.234375 407.46875 101.304688 408.890625 101.445312 410.308594 C 101.585938 411.726562 101.792969 413.132812 102.070312 414.53125 C 102.347656 415.925781 102.695312 417.308594 103.105469 418.671875 C 103.519531 420.035156 104 421.375 104.542969 422.6875 C 105.089844 424.003906 105.695312 425.292969 106.367188 426.546875 C 107.039062 427.804688 107.769531 429.023438 108.5625 430.210938 C 109.351562 431.394531 110.199219 432.539062 111.101562 433.640625 C 112.003906 434.742188 112.960938 435.796875 113.96875 436.804688 C 114.972656 437.8125 116.027344 438.765625 117.128906 439.671875 C 118.230469 440.574219 119.371094 441.421875 120.554688 442.214844 C 121.738281 443.007812 122.957031 443.738281 124.214844 444.410156 C 125.46875 445.085938 126.757812 445.695312 128.070312 446.238281 C 129.386719 446.785156 130.726562 447.265625 132.089844 447.679688 C 133.453125 448.09375 134.832031 448.441406 136.230469 448.722656 C 137.625 449 139.03125 449.210938 140.449219 449.351562 C 141.867188 449.492188 143.289062 449.5625 144.710938 449.5625 Z M 376.476562 336.996094 L 427.992188 353.070312 C 428.039062 360.148438 428.203125 366.777344 428.371094 373.21875 C 428.96875 396.441406 429.429688 414.785156 422.925781 428.429688 C 416.296875 442.316406 401.945312 451.761719 376.476562 458.957031 C 351.003906 451.761719 336.65625 442.316406 330.03125 428.429688 C 323.519531 414.785156 323.988281 396.441406 324.582031 373.21875 C 324.746094 366.78125 324.914062 360.15625 324.960938 353.070312 Z M 263.480469 126.75 C 262.441406 126.753906 261.398438 126.78125 260.355469 126.832031 C 259.316406 126.882812 258.277344 126.960938 257.238281 127.066406 C 256.203125 127.167969 255.167969 127.296875 254.136719 127.449219 C 253.105469 127.605469 252.082031 127.785156 251.058594 127.988281 C 250.035156 128.191406 249.019531 128.421875 248.007812 128.675781 C 247 128.929688 245.996094 129.207031 244.996094 129.511719 C 244 129.8125 243.011719 130.140625 242.03125 130.492188 C 241.050781 130.84375 240.078125 131.21875 239.113281 131.621094 C 238.152344 132.019531 237.199219 132.441406 236.257812 132.886719 C 235.316406 133.335938 234.386719 133.804688 233.464844 134.296875 C 232.546875 134.785156 231.640625 135.300781 230.746094 135.835938 C 229.851562 136.371094 228.972656 136.929688 228.105469 137.511719 C 227.242188 138.089844 226.386719 138.6875 225.550781 139.308594 C 224.714844 139.929688 223.894531 140.574219 223.085938 141.234375 C 222.28125 141.894531 221.492188 142.574219 220.722656 143.277344 C 219.949219 143.976562 219.195312 144.695312 218.457031 145.429688 C 217.71875 146.167969 217 146.921875 216.300781 147.695312 C 215.601562 148.46875 214.921875 149.257812 214.261719 150.0625 C 213.597656 150.867188 212.957031 151.6875 212.335938 152.523438 C 211.714844 153.363281 211.113281 154.214844 210.535156 155.082031 C 209.957031 155.945312 209.398438 156.828125 208.863281 157.722656 C 208.328125 158.613281 207.8125 159.519531 207.320312 160.441406 C 206.828125 161.359375 206.359375 162.289062 205.914062 163.230469 C 205.46875 164.171875 205.046875 165.125 204.644531 166.089844 C 204.246094 167.050781 203.871094 168.023438 203.519531 169.003906 C 203.167969 169.984375 202.839844 170.972656 202.535156 171.972656 C 202.234375 172.96875 201.953125 173.972656 201.699219 174.984375 C 201.445312 175.992188 201.21875 177.011719 201.011719 178.03125 C 200.808594 179.054688 200.628906 180.082031 200.476562 181.113281 C 200.324219 182.140625 200.195312 183.175781 200.089844 184.214844 C 199.988281 185.25 199.910156 186.289062 199.855469 187.332031 C 199.804688 188.371094 199.777344 189.414062 199.777344 190.457031 L 199.777344 207.835938 L 185.46875 207.835938 L 185.46875 187.648438 C 185.472656 186.375 185.511719 185.101562 185.578125 183.828125 C 185.644531 182.558594 185.742188 181.289062 185.871094 180.019531 C 186 178.753906 186.160156 177.488281 186.351562 176.230469 C 186.542969 174.972656 186.765625 173.71875 187.019531 172.46875 C 187.269531 171.21875 187.554688 169.980469 187.867188 168.742188 C 188.179688 167.507812 188.523438 166.285156 188.898438 165.066406 C 189.269531 163.847656 189.671875 162.640625 190.105469 161.441406 C 190.539062 160.242188 191 159.058594 191.492188 157.882812 C 191.980469 156.707031 192.5 155.542969 193.046875 154.394531 C 193.59375 153.242188 194.171875 152.109375 194.773438 150.984375 C 195.378906 149.863281 196.007812 148.757812 196.664062 147.667969 C 197.324219 146.574219 198.007812 145.5 198.714844 144.445312 C 199.425781 143.386719 200.164062 142.347656 200.921875 141.324219 C 201.683594 140.304688 202.46875 139.300781 203.28125 138.320312 C 204.089844 137.335938 204.921875 136.375 205.78125 135.433594 C 206.636719 134.488281 207.519531 133.570312 208.421875 132.671875 C 209.324219 131.769531 210.246094 130.894531 211.191406 130.042969 C 212.136719 129.1875 213.101562 128.355469 214.089844 127.550781 C 215.074219 126.746094 216.078125 125.960938 217.101562 125.207031 C 218.128906 124.449219 219.167969 123.714844 220.230469 123.011719 C 221.289062 122.304688 222.367188 121.625 223.460938 120.96875 C 224.554688 120.316406 225.660156 119.691406 226.785156 119.09375 C 227.910156 118.492188 229.046875 117.921875 230.199219 117.378906 C 231.351562 116.835938 232.515625 116.320312 233.695312 115.832031 C 234.871094 115.347656 236.058594 114.890625 237.257812 114.460938 C 238.457031 114.035156 239.667969 113.636719 240.886719 113.265625 C 242.105469 112.898438 243.332031 112.558594 244.570312 112.25 C 245.804688 111.941406 247.046875 111.664062 248.296875 111.414062 C 249.546875 111.167969 250.800781 110.949219 252.0625 110.761719 C 253.320312 110.578125 254.585938 110.421875 255.851562 110.296875 C 257.121094 110.171875 258.390625 110.078125 259.664062 110.015625 C 260.933594 109.953125 262.207031 109.921875 263.480469 109.921875 C 264.753906 109.921875 266.027344 109.953125 267.300781 110.015625 C 268.574219 110.078125 269.84375 110.171875 271.109375 110.296875 C 272.378906 110.421875 273.640625 110.578125 274.902344 110.761719 C 276.160156 110.949219 277.417969 111.167969 278.664062 111.414062 C 279.914062 111.664062 281.15625 111.941406 282.394531 112.25 C 283.628906 112.558594 284.855469 112.898438 286.074219 113.265625 C 287.292969 113.636719 288.503906 114.035156 289.703125 114.460938 C 290.902344 114.890625 292.09375 115.347656 293.269531 115.832031 C 294.445312 116.320312 295.609375 116.835938 296.761719 117.378906 C 297.914062 117.921875 299.054688 118.492188 300.175781 119.09375 C 301.300781 119.691406 302.410156 120.316406 303.503906 120.96875 C 304.597656 121.625 305.671875 122.304688 306.734375 123.011719 C 307.792969 123.714844 308.835938 124.449219 309.859375 125.207031 C 310.882812 125.960938 311.886719 126.746094 312.875 127.550781 C 313.859375 128.355469 314.824219 129.1875 315.769531 130.042969 C 316.714844 130.894531 317.640625 131.769531 318.542969 132.671875 C 319.445312 133.570312 320.324219 134.488281 321.183594 135.433594 C 322.039062 136.375 322.871094 137.335938 323.683594 138.320312 C 324.492188 139.300781 325.277344 140.304688 326.039062 141.324219 C 326.800781 142.347656 327.535156 143.386719 328.246094 144.445312 C 328.957031 145.5 329.640625 146.574219 330.296875 147.667969 C 330.953125 148.757812 331.585938 149.863281 332.1875 150.984375 C 332.792969 152.109375 333.367188 153.242188 333.914062 154.394531 C 334.460938 155.542969 334.980469 156.707031 335.472656 157.882812 C 335.964844 159.058594 336.425781 160.242188 336.855469 161.441406 C 337.289062 162.640625 337.691406 163.847656 338.066406 165.066406 C 338.441406 166.285156 338.78125 167.507812 339.097656 168.742188 C 339.410156 169.980469 339.691406 171.21875 339.945312 172.46875 C 340.199219 173.71875 340.417969 174.972656 340.609375 176.230469 C 340.800781 177.488281 340.960938 178.753906 341.089844 180.019531 C 341.21875 181.289062 341.320312 182.558594 341.386719 183.828125 C 341.453125 185.101562 341.488281 186.375 341.492188 187.648438 L 341.492188 241.257812 L 327.164062 241.257812 L 327.164062 190.457031 C 327.164062 189.414062 327.136719 188.371094 327.085938 187.332031 C 327.03125 186.289062 326.957031 185.25 326.851562 184.214844 C 326.75 183.175781 326.621094 182.144531 326.46875 181.113281 C 326.3125 180.082031 326.136719 179.054688 325.929688 178.035156 C 325.726562 177.011719 325.496094 175.996094 325.242188 174.984375 C 324.992188 173.976562 324.710938 172.972656 324.410156 171.972656 C 324.105469 170.976562 323.777344 169.988281 323.425781 169.007812 C 323.074219 168.027344 322.699219 167.054688 322.300781 166.089844 C 321.902344 165.128906 321.480469 164.175781 321.035156 163.234375 C 320.585938 162.292969 320.117188 161.363281 319.628906 160.445312 C 319.136719 159.523438 318.621094 158.617188 318.085938 157.726562 C 317.550781 156.832031 316.992188 155.949219 316.414062 155.085938 C 315.835938 154.21875 315.234375 153.367188 314.613281 152.53125 C 313.992188 151.691406 313.351562 150.871094 312.691406 150.066406 C 312.03125 149.261719 311.351562 148.472656 310.648438 147.699219 C 309.949219 146.925781 309.230469 146.171875 308.496094 145.433594 C 307.757812 144.699219 307.003906 143.980469 306.234375 143.28125 C 305.460938 142.578125 304.671875 141.898438 303.867188 141.238281 C 303.0625 140.578125 302.242188 139.9375 301.402344 139.316406 C 300.566406 138.695312 299.714844 138.09375 298.847656 137.515625 C 297.984375 136.933594 297.101562 136.375 296.210938 135.839844 C 295.316406 135.304688 294.410156 134.789062 293.492188 134.296875 C 292.574219 133.808594 291.640625 133.339844 290.699219 132.890625 C 289.757812 132.445312 288.808594 132.023438 287.84375 131.625 C 286.882812 131.222656 285.910156 130.847656 284.929688 130.496094 C 283.949219 130.144531 282.960938 129.816406 281.960938 129.511719 C 280.964844 129.210938 279.960938 128.929688 278.953125 128.675781 C 277.941406 128.421875 276.925781 128.195312 275.902344 127.988281 C 274.878906 127.785156 273.855469 127.605469 272.824219 127.453125 C 271.792969 127.296875 270.757812 127.167969 269.722656 127.066406 C 268.6875 126.960938 267.648438 126.886719 266.605469 126.832031 C 265.566406 126.78125 264.523438 126.753906 263.480469 126.75 Z M 155.542969 271.355469 C 155.542969 270.699219 155.574219 270.046875 155.640625 269.398438 C 155.707031 268.746094 155.800781 268.101562 155.929688 267.457031 C 156.058594 266.816406 156.21875 266.183594 156.40625 265.558594 C 156.597656 264.933594 156.820312 264.316406 157.070312 263.714844 C 157.320312 263.109375 157.601562 262.519531 157.910156 261.941406 C 158.21875 261.367188 158.554688 260.804688 158.917969 260.261719 C 159.28125 259.71875 159.667969 259.195312 160.085938 258.6875 C 160.5 258.183594 160.9375 257.699219 161.402344 257.238281 C 161.863281 256.773438 162.347656 256.335938 162.851562 255.921875 C 163.359375 255.503906 163.882812 255.117188 164.425781 254.753906 C 164.96875 254.390625 165.53125 254.054688 166.105469 253.746094 C 166.683594 253.4375 167.273438 253.15625 167.878906 252.90625 C 168.480469 252.65625 169.097656 252.433594 169.722656 252.246094 C 170.347656 252.054688 170.980469 251.894531 171.621094 251.765625 C 172.265625 251.636719 172.910156 251.542969 173.5625 251.476562 C 174.210938 251.410156 174.863281 251.378906 175.519531 251.378906 L 351.421875 251.378906 C 352.078125 251.378906 352.730469 251.410156 353.378906 251.476562 C 354.03125 251.539062 354.679688 251.636719 355.320312 251.765625 C 355.960938 251.890625 356.59375 252.050781 357.222656 252.242188 C 357.847656 252.429688 358.464844 252.652344 359.066406 252.902344 C 359.671875 253.152344 360.261719 253.433594 360.839844 253.738281 C 361.417969 254.046875 361.976562 254.382812 362.523438 254.746094 C 363.066406 255.109375 363.59375 255.5 364.097656 255.914062 C 364.605469 256.332031 365.089844 256.769531 365.550781 257.230469 C 366.015625 257.695312 366.453125 258.179688 366.867188 258.683594 C 367.285156 259.1875 367.675781 259.714844 368.039062 260.257812 C 368.402344 260.800781 368.738281 261.363281 369.046875 261.9375 C 369.355469 262.515625 369.636719 263.105469 369.886719 263.710938 C 370.140625 264.3125 370.359375 264.929688 370.550781 265.554688 C 370.742188 266.179688 370.902344 266.816406 371.03125 267.457031 C 371.160156 268.097656 371.257812 268.746094 371.320312 269.394531 C 371.386719 270.046875 371.417969 270.699219 371.421875 271.355469 L 371.421875 327.980469 L 314.863281 345.625 L 314.863281 349.34375 C 314.863281 357.726562 314.664062 365.46875 314.472656 372.960938 C 314.191406 384.011719 313.9375 394.015625 314.425781 403.121094 L 299.265625 403.121094 L 299.265625 397.859375 C 299.261719 397.261719 299.203125 396.664062 299.085938 396.078125 C 298.964844 395.488281 298.792969 394.917969 298.5625 394.363281 C 298.332031 393.8125 298.046875 393.285156 297.714844 392.785156 C 297.378906 392.289062 297 391.828125 296.578125 391.402344 C 296.152344 390.980469 295.691406 390.601562 295.191406 390.269531 C 294.691406 389.933594 294.164062 389.652344 293.609375 389.425781 C 293.054688 389.195312 292.484375 389.023438 291.894531 388.90625 C 291.308594 388.789062 290.714844 388.730469 290.113281 388.730469 L 285.363281 388.730469 L 285.363281 367.316406 C 285.363281 366.761719 285.308594 366.210938 285.199219 365.664062 C 285.089844 365.121094 284.929688 364.589844 284.714844 364.078125 C 284.503906 363.5625 284.242188 363.074219 283.933594 362.613281 C 283.625 362.148438 283.273438 361.722656 282.878906 361.328125 C 282.484375 360.933594 282.058594 360.582031 281.59375 360.273438 C 281.132812 359.964844 280.644531 359.703125 280.128906 359.492188 C 279.617188 359.277344 279.085938 359.117188 278.542969 359.007812 C 277.996094 358.898438 277.445312 358.84375 276.890625 358.84375 L 263.765625 358.84375 C 263.207031 358.84375 262.65625 358.898438 262.113281 359.007812 C 261.566406 359.117188 261.035156 359.277344 260.523438 359.492188 C 260.007812 359.703125 259.519531 359.964844 259.058594 360.273438 C 258.597656 360.585938 258.167969 360.933594 257.773438 361.328125 C 257.382812 361.722656 257.03125 362.148438 256.722656 362.613281 C 256.410156 363.074219 256.152344 363.5625 255.9375 364.078125 C 255.722656 364.589844 255.5625 365.121094 255.453125 365.664062 C 255.34375 366.210938 255.289062 366.761719 255.289062 367.316406 L 255.289062 388.730469 L 244.160156 388.730469 L 244.160156 377.1875 C 244.15625 376.628906 244.101562 376.078125 243.992188 375.535156 C 243.882812 374.988281 243.722656 374.460938 243.507812 373.949219 C 243.292969 373.433594 243.03125 372.949219 242.722656 372.484375 C 242.414062 372.023438 242.0625 371.597656 241.667969 371.207031 C 241.277344 370.8125 240.847656 370.460938 240.386719 370.152344 C 239.921875 369.847656 239.433594 369.585938 238.921875 369.375 C 238.410156 369.160156 237.878906 369 237.332031 368.890625 C 236.789062 368.785156 236.238281 368.730469 235.683594 368.730469 L 222.5625 368.730469 C 222.007812 368.730469 221.457031 368.785156 220.910156 368.890625 C 220.367188 369 219.835938 369.160156 219.324219 369.375 C 218.808594 369.585938 218.320312 369.847656 217.859375 370.152344 C 217.398438 370.460938 216.96875 370.8125 216.574219 371.207031 C 216.183594 371.597656 215.832031 372.023438 215.523438 372.484375 C 215.210938 372.949219 214.949219 373.433594 214.738281 373.949219 C 214.523438 374.460938 214.363281 374.988281 214.253906 375.535156 C 214.144531 376.078125 214.089844 376.628906 214.085938 377.1875 L 214.085938 388.730469 L 184.640625 388.730469 C 183.984375 387.214844 183.246094 385.738281 182.421875 384.308594 C 181.597656 382.875 180.691406 381.496094 179.710938 380.167969 C 178.726562 378.835938 177.675781 377.570312 176.546875 376.359375 C 175.421875 375.152344 174.230469 374.011719 172.972656 372.9375 C 171.714844 371.863281 170.402344 370.867188 169.03125 369.945312 C 167.660156 369.019531 166.242188 368.179688 164.773438 367.417969 C 163.308594 366.65625 161.800781 365.980469 160.257812 365.390625 C 158.714844 364.800781 157.144531 364.304688 155.542969 363.894531 Z M 144.710938 372.640625 C 146.453125 372.640625 148.179688 372.773438 149.898438 373.042969 C 151.617188 373.3125 153.300781 373.710938 154.957031 374.242188 C 156.613281 374.777344 158.214844 375.433594 159.769531 376.214844 C 161.320312 377 162.804688 377.898438 164.214844 378.914062 C 165.625 379.929688 166.953125 381.046875 168.1875 382.269531 C 169.425781 383.488281 170.558594 384.800781 171.59375 386.199219 C 172.625 387.597656 173.542969 389.070312 174.34375 390.609375 C 175.148438 392.152344 175.824219 393.75 176.378906 395.398438 C 176.546875 395.898438 176.789062 396.363281 177.101562 396.789062 C 177.417969 397.214844 177.789062 397.582031 178.21875 397.890625 C 178.648438 398.203125 179.117188 398.4375 179.621094 398.597656 C 180.125 398.761719 180.640625 398.84375 181.171875 398.84375 L 219.144531 398.84375 C 219.476562 398.84375 219.804688 398.808594 220.128906 398.746094 C 220.457031 398.679688 220.769531 398.585938 221.078125 398.457031 C 221.386719 398.332031 221.675781 398.175781 221.953125 397.992188 C 222.226562 397.804688 222.484375 397.597656 222.71875 397.363281 C 222.953125 397.128906 223.164062 396.871094 223.347656 396.59375 C 223.53125 396.320312 223.6875 396.027344 223.816406 395.722656 C 223.941406 395.414062 224.039062 395.097656 224.101562 394.773438 C 224.167969 394.449219 224.199219 394.117188 224.199219 393.785156 L 224.199219 378.84375 L 234.042969 378.84375 L 234.042969 393.785156 C 234.042969 394.117188 234.078125 394.449219 234.140625 394.773438 C 234.207031 395.097656 234.300781 395.414062 234.429688 395.722656 C 234.554688 396.027344 234.710938 396.320312 234.898438 396.59375 C 235.082031 396.871094 235.289062 397.128906 235.527344 397.363281 C 235.761719 397.597656 236.015625 397.804688 236.292969 397.992188 C 236.566406 398.175781 236.859375 398.332031 237.164062 398.457031 C 237.472656 398.585938 237.789062 398.679688 238.113281 398.746094 C 238.441406 398.808594 238.769531 398.84375 239.101562 398.84375 L 260.34375 398.84375 C 260.675781 398.84375 261.003906 398.808594 261.332031 398.746094 C 261.65625 398.679688 261.972656 398.585938 262.28125 398.457031 C 262.585938 398.332031 262.878906 398.175781 263.152344 397.992188 C 263.429688 397.804688 263.6875 397.597656 263.921875 397.363281 C 264.15625 397.128906 264.363281 396.871094 264.550781 396.59375 C 264.734375 396.320312 264.890625 396.027344 265.015625 395.722656 C 265.144531 395.414062 265.238281 395.097656 265.304688 394.773438 C 265.367188 394.449219 265.402344 394.117188 265.402344 393.785156 L 265.402344 368.957031 L 275.246094 368.957031 L 275.246094 393.785156 C 275.246094 394.117188 275.28125 394.449219 275.34375 394.773438 C 275.410156 395.097656 275.503906 395.414062 275.632812 395.722656 C 275.757812 396.027344 275.914062 396.320312 276.101562 396.59375 C 276.285156 396.871094 276.492188 397.128906 276.730469 397.363281 C 276.964844 397.597656 277.21875 397.804688 277.496094 397.992188 C 277.769531 398.175781 278.0625 398.332031 278.367188 398.457031 C 278.675781 398.585938 278.992188 398.679688 279.316406 398.746094 C 279.644531 398.808594 279.972656 398.84375 280.304688 398.84375 L 289.148438 398.84375 L 289.148438 413.273438 L 181.171875 413.273438 C 180.640625 413.273438 180.125 413.355469 179.621094 413.515625 C 179.117188 413.679688 178.648438 413.914062 178.21875 414.226562 C 177.789062 414.535156 177.417969 414.902344 177.101562 415.328125 C 176.789062 415.753906 176.546875 416.21875 176.378906 416.71875 C 176.054688 417.683594 175.683594 418.632812 175.273438 419.566406 C 174.859375 420.496094 174.40625 421.40625 173.910156 422.296875 C 173.417969 423.1875 172.882812 424.054688 172.308594 424.894531 C 171.734375 425.738281 171.121094 426.550781 170.472656 427.335938 C 169.824219 428.121094 169.140625 428.875 168.421875 429.597656 C 167.707031 430.320312 166.957031 431.007812 166.175781 431.664062 C 165.394531 432.316406 164.585938 432.933594 163.75 433.515625 C 162.910156 434.09375 162.050781 434.636719 161.164062 435.136719 C 160.277344 435.640625 159.367188 436.097656 158.4375 436.519531 C 157.511719 436.9375 156.5625 437.3125 155.601562 437.644531 C 154.636719 437.976562 153.660156 438.261719 152.671875 438.503906 C 151.683594 438.746094 150.683594 438.945312 149.675781 439.097656 C 148.671875 439.246094 147.65625 439.351562 146.640625 439.410156 C 145.625 439.46875 144.605469 439.480469 143.589844 439.449219 C 142.570312 439.414062 141.554688 439.332031 140.546875 439.207031 C 139.535156 439.078125 138.53125 438.90625 137.535156 438.6875 C 136.542969 438.46875 135.558594 438.203125 134.589844 437.894531 C 133.617188 437.585938 132.664062 437.234375 131.722656 436.835938 C 130.785156 436.441406 129.867188 436.003906 128.96875 435.523438 C 128.070312 435.042969 127.195312 434.523438 126.34375 433.964844 C 125.496094 433.402344 124.671875 432.804688 123.875 432.167969 C 123.078125 431.535156 122.3125 430.863281 121.578125 430.160156 C 120.84375 429.453125 120.140625 428.714844 119.472656 427.945312 C 118.808594 427.175781 118.175781 426.378906 117.582031 425.550781 C 116.988281 424.722656 116.433594 423.871094 115.914062 422.992188 C 115.398438 422.113281 114.925781 421.214844 114.488281 420.292969 C 114.054688 419.371094 113.664062 418.433594 113.316406 417.476562 C 112.96875 416.515625 112.664062 415.546875 112.40625 414.5625 C 112.144531 413.574219 111.933594 412.582031 111.765625 411.578125 C 111.597656 410.570312 111.472656 409.5625 111.398438 408.546875 C 111.320312 407.53125 111.292969 406.511719 111.308594 405.492188 C 111.328125 404.476562 111.390625 403.460938 111.5 402.449219 C 111.609375 401.433594 111.765625 400.429688 111.96875 399.429688 C 112.171875 398.433594 112.417969 397.445312 112.710938 396.46875 C 113.003906 395.492188 113.339844 394.53125 113.71875 393.585938 C 114.097656 392.644531 114.519531 391.71875 114.984375 390.808594 C 115.449219 389.902344 115.957031 389.019531 116.5 388.160156 C 117.046875 387.300781 117.632812 386.46875 118.253906 385.660156 C 118.875 384.851562 119.53125 384.078125 120.226562 383.328125 C 120.917969 382.582031 121.644531 381.871094 122.402344 381.1875 C 123.160156 380.507812 123.949219 379.863281 124.765625 379.257812 C 125.582031 378.648438 126.425781 378.078125 127.292969 377.546875 C 128.164062 377.015625 129.054688 376.527344 129.96875 376.074219 C 130.882812 375.625 131.816406 375.21875 132.769531 374.855469 C 133.71875 374.492188 134.683594 374.171875 135.664062 373.894531 C 136.644531 373.617188 137.636719 373.386719 138.640625 373.203125 C 139.640625 373.019531 140.648438 372.878906 141.664062 372.785156 C 142.675781 372.691406 143.695312 372.644531 144.710938 372.644531 Z M 144.710938 372.640625 " fill-opacity="1" fill-rule="nonzero"/><path fill="#1a66bc" d="M 195.582031 332.070312 L 331.363281 332.070312 C 332.140625 332.066406 332.914062 331.992188 333.675781 331.839844 C 334.441406 331.6875 335.183594 331.460938 335.902344 331.160156 C 336.621094 330.863281 337.304688 330.496094 337.953125 330.0625 C 338.601562 329.628906 339.203125 329.136719 339.753906 328.585938 C 340.304688 328.035156 340.796875 327.4375 341.230469 326.789062 C 341.660156 326.140625 342.027344 325.457031 342.328125 324.738281 C 342.625 324.019531 342.851562 323.277344 343.003906 322.511719 C 343.15625 321.746094 343.234375 320.976562 343.234375 320.195312 L 343.234375 293.175781 C 343.230469 292.398438 343.15625 291.625 343 290.863281 C 342.847656 290.097656 342.621094 289.355469 342.324219 288.636719 C 342.023438 287.917969 341.660156 287.238281 341.226562 286.589844 C 340.792969 285.941406 340.300781 285.34375 339.75 284.792969 C 339.199219 284.242188 338.597656 283.753906 337.949219 283.320312 C 337.304688 282.886719 336.621094 282.523438 335.898438 282.226562 C 335.179688 281.925781 334.4375 281.703125 333.675781 281.550781 C 332.910156 281.398438 332.140625 281.320312 331.363281 281.320312 L 195.582031 281.320312 C 194.804688 281.324219 194.03125 281.398438 193.269531 281.550781 C 192.507812 281.703125 191.765625 281.929688 191.046875 282.226562 C 190.328125 282.527344 189.648438 282.890625 189 283.324219 C 188.351562 283.757812 187.753906 284.246094 187.203125 284.796875 C 186.65625 285.347656 186.164062 285.945312 185.730469 286.59375 C 185.296875 287.242188 184.933594 287.921875 184.636719 288.640625 C 184.335938 289.359375 184.113281 290.101562 183.960938 290.863281 C 183.808594 291.625 183.730469 292.398438 183.730469 293.175781 L 183.730469 320.195312 C 183.730469 320.976562 183.804688 321.746094 183.957031 322.511719 C 184.109375 323.273438 184.335938 324.015625 184.632812 324.734375 C 184.929688 325.453125 185.296875 326.136719 185.726562 326.785156 C 186.160156 327.433594 186.652344 328.03125 187.199219 328.582031 C 187.75 329.132812 188.347656 329.625 188.996094 330.058594 C 189.644531 330.492188 190.324219 330.859375 191.042969 331.160156 C 191.765625 331.457031 192.503906 331.683594 193.269531 331.835938 C 194.03125 331.988281 194.800781 332.066406 195.582031 332.070312 Z M 193.84375 293.175781 C 193.84375 292.945312 193.886719 292.722656 193.976562 292.507812 C 194.0625 292.296875 194.1875 292.109375 194.351562 291.945312 C 194.515625 291.78125 194.703125 291.65625 194.914062 291.566406 C 195.128906 291.480469 195.351562 291.433594 195.582031 291.433594 L 331.363281 291.433594 C 331.59375 291.4375 331.816406 291.480469 332.027344 291.570312 C 332.242188 291.660156 332.429688 291.785156 332.59375 291.945312 C 332.757812 292.109375 332.886719 292.296875 332.976562 292.507812 C 333.070312 292.722656 333.117188 292.941406 333.121094 293.175781 L 333.121094 320.195312 C 333.117188 320.429688 333.070312 320.652344 332.980469 320.867188 C 332.890625 321.078125 332.761719 321.269531 332.597656 321.433594 C 332.433594 321.597656 332.246094 321.726562 332.03125 321.816406 C 331.816406 321.90625 331.59375 321.953125 331.363281 321.957031 L 195.582031 321.957031 C 195.351562 321.949219 195.128906 321.902344 194.917969 321.8125 C 194.703125 321.722656 194.515625 321.59375 194.355469 321.429688 C 194.191406 321.265625 194.066406 321.074219 193.976562 320.863281 C 193.890625 320.648438 193.84375 320.425781 193.84375 320.195312 Z M 193.84375 293.175781 " fill-opacity="1" fill-rule="nonzero"/><path fill="#1a66bc" d="M 351.023438 401.464844 L 349.007812 423.625 C 348.988281 423.84375 348.980469 424.058594 348.988281 424.277344 C 348.996094 424.496094 349.019531 424.710938 349.054688 424.925781 C 349.09375 425.140625 349.144531 425.355469 349.207031 425.5625 C 349.269531 425.769531 349.347656 425.972656 349.4375 426.171875 C 349.527344 426.371094 349.628906 426.5625 349.746094 426.75 C 349.859375 426.933594 349.984375 427.109375 350.125 427.28125 C 350.261719 427.449219 350.410156 427.609375 350.566406 427.757812 C 350.726562 427.90625 350.894531 428.046875 351.070312 428.175781 C 351.246094 428.304688 351.429688 428.417969 351.621094 428.523438 C 351.8125 428.628906 352.011719 428.71875 352.214844 428.796875 C 352.417969 428.875 352.625 428.941406 352.835938 428.992188 C 353.046875 429.046875 353.261719 429.085938 353.480469 429.109375 C 353.695312 429.132812 353.914062 429.140625 354.128906 429.140625 C 354.347656 429.132812 354.566406 429.117188 354.78125 429.085938 C 354.996094 429.054688 355.210938 429.007812 355.417969 428.949219 C 355.628906 428.886719 355.832031 428.816406 356.035156 428.730469 L 376.476562 419.964844 L 396.898438 428.726562 C 397.097656 428.8125 397.304688 428.886719 397.511719 428.945312 C 397.722656 429.007812 397.933594 429.050781 398.152344 429.082031 C 398.367188 429.117188 398.582031 429.132812 398.800781 429.136719 C 399.019531 429.140625 399.234375 429.132812 399.453125 429.105469 C 399.667969 429.082031 399.882812 429.046875 400.09375 428.992188 C 400.304688 428.941406 400.515625 428.875 400.71875 428.796875 C 400.921875 428.71875 401.117188 428.628906 401.308594 428.523438 C 401.5 428.417969 401.683594 428.304688 401.859375 428.175781 C 402.039062 428.046875 402.203125 427.910156 402.363281 427.757812 C 402.523438 427.609375 402.667969 427.449219 402.808594 427.28125 C 402.945312 427.113281 403.070312 426.9375 403.1875 426.75 C 403.300781 426.566406 403.40625 426.375 403.496094 426.175781 C 403.585938 425.976562 403.664062 425.773438 403.726562 425.566406 C 403.789062 425.355469 403.839844 425.144531 403.878906 424.929688 C 403.914062 424.714844 403.9375 424.5 403.945312 424.28125 C 403.953125 424.0625 403.949219 423.847656 403.929688 423.628906 L 401.933594 401.464844 L 416.574219 384.730469 C 416.71875 384.566406 416.851562 384.394531 416.972656 384.214844 C 417.09375 384.03125 417.203125 383.84375 417.300781 383.648438 C 417.394531 383.453125 417.480469 383.253906 417.550781 383.046875 C 417.621094 382.839844 417.679688 382.632812 417.722656 382.417969 C 417.765625 382.203125 417.796875 381.988281 417.8125 381.769531 C 417.828125 381.554688 417.832031 381.335938 417.816406 381.117188 C 417.804688 380.902344 417.78125 380.683594 417.738281 380.472656 C 417.699219 380.257812 417.644531 380.046875 417.578125 379.839844 C 417.511719 379.632812 417.429688 379.429688 417.335938 379.234375 C 417.242188 379.035156 417.136719 378.847656 417.019531 378.664062 C 416.902344 378.480469 416.773438 378.304688 416.632812 378.136719 C 416.492188 377.972656 416.339844 377.816406 416.179688 377.667969 C 416.019531 377.519531 415.847656 377.386719 415.667969 377.261719 C 415.492188 377.136719 415.304688 377.023438 415.113281 376.921875 C 414.917969 376.820312 414.71875 376.730469 414.515625 376.65625 C 414.3125 376.582031 414.101562 376.519531 413.890625 376.472656 L 392.199219 371.546875 L 380.820312 352.449219 C 380.367188 351.683594 379.75 351.078125 378.976562 350.640625 C 378.203125 350.199219 377.371094 349.980469 376.480469 349.976562 C 375.589844 349.976562 374.757812 350.199219 373.984375 350.636719 C 373.207031 351.078125 372.59375 351.679688 372.136719 352.445312 L 360.738281 371.546875 L 339.066406 376.472656 C 338.855469 376.519531 338.644531 376.582031 338.441406 376.65625 C 338.234375 376.730469 338.039062 376.820312 337.84375 376.921875 C 337.652344 377.019531 337.464844 377.132812 337.285156 377.257812 C 337.105469 377.382812 336.9375 377.519531 336.777344 377.667969 C 336.617188 377.8125 336.464844 377.96875 336.324219 378.136719 C 336.183594 378.304688 336.054688 378.476562 335.9375 378.660156 C 335.816406 378.84375 335.710938 379.035156 335.617188 379.230469 C 335.523438 379.429688 335.445312 379.628906 335.375 379.839844 C 335.308594 380.046875 335.253906 380.257812 335.214844 380.46875 C 335.175781 380.683594 335.148438 380.902344 335.136719 381.117188 C 335.125 381.335938 335.125 381.554688 335.144531 381.769531 C 335.160156 381.988281 335.1875 382.203125 335.234375 382.417969 C 335.277344 382.628906 335.332031 382.839844 335.40625 383.046875 C 335.476562 383.253906 335.558594 383.453125 335.65625 383.648438 C 335.753906 383.84375 335.863281 384.03125 335.984375 384.214844 C 336.105469 384.394531 336.238281 384.566406 336.382812 384.730469 Z M 365.089844 380.929688 C 365.765625 380.777344 366.382812 380.496094 366.941406 380.089844 C 367.5 379.683594 367.957031 379.183594 368.3125 378.589844 L 376.472656 364.910156 L 384.621094 378.585938 C 384.972656 379.179688 385.433594 379.683594 385.992188 380.089844 C 386.550781 380.496094 387.171875 380.777344 387.84375 380.929688 L 403.382812 384.453125 L 392.898438 396.433594 C 392.445312 396.953125 392.109375 397.542969 391.894531 398.199219 C 391.683594 398.855469 391.605469 399.53125 391.667969 400.21875 L 393.097656 416.09375 L 378.472656 409.816406 C 377.835938 409.542969 377.171875 409.40625 376.480469 409.40625 C 375.789062 409.40625 375.125 409.542969 374.488281 409.816406 L 359.847656 416.09375 L 361.289062 400.222656 C 361.351562 399.535156 361.277344 398.859375 361.0625 398.203125 C 360.851562 397.546875 360.515625 396.957031 360.058594 396.433594 L 349.574219 384.453125 Z M 365.089844 380.929688 " fill-opacity="1" fill-rule="nonzero"/><path fill="#1a66bc" d="M 288.832031 317.773438 C 289.066406 318.007812 289.320312 318.21875 289.597656 318.402344 C 289.875 318.585938 290.164062 318.742188 290.472656 318.871094 C 290.777344 318.996094 291.09375 319.09375 291.417969 319.15625 C 291.746094 319.222656 292.074219 319.253906 292.40625 319.253906 C 292.738281 319.253906 293.066406 319.222656 293.390625 319.15625 C 293.71875 319.09375 294.035156 318.996094 294.339844 318.871094 C 294.648438 318.742188 294.9375 318.585938 295.214844 318.402344 C 295.492188 318.21875 295.746094 318.007812 295.980469 317.773438 L 299.671875 314.082031 L 303.363281 317.773438 C 303.601562 318.007812 303.855469 318.214844 304.132812 318.402344 C 304.40625 318.585938 304.699219 318.742188 305.003906 318.867188 C 305.3125 318.996094 305.628906 319.089844 305.953125 319.15625 C 306.277344 319.21875 306.609375 319.25 306.941406 319.25 C 307.269531 319.25 307.601562 319.21875 307.925781 319.152344 C 308.25 319.089844 308.566406 318.992188 308.875 318.867188 C 309.179688 318.738281 309.472656 318.582031 309.746094 318.398438 C 310.023438 318.214844 310.277344 318.003906 310.511719 317.769531 C 310.746094 317.535156 310.957031 317.28125 311.140625 317.003906 C 311.324219 316.726562 311.480469 316.4375 311.609375 316.128906 C 311.734375 315.824219 311.832031 315.507812 311.898438 315.183594 C 311.960938 314.855469 311.992188 314.527344 311.996094 314.195312 C 311.996094 313.863281 311.960938 313.535156 311.898438 313.210938 C 311.832031 312.886719 311.738281 312.570312 311.609375 312.261719 C 311.484375 311.957031 311.328125 311.664062 311.144531 311.386719 C 310.960938 311.113281 310.75 310.855469 310.515625 310.621094 L 306.824219 306.929688 L 310.515625 303.238281 C 310.75 303.003906 310.960938 302.75 311.144531 302.472656 C 311.328125 302.195312 311.484375 301.90625 311.613281 301.597656 C 311.738281 301.292969 311.835938 300.976562 311.898438 300.648438 C 311.964844 300.324219 311.996094 299.996094 311.996094 299.664062 C 311.996094 299.332031 311.964844 299.003906 311.898438 298.675781 C 311.835938 298.351562 311.738281 298.035156 311.613281 297.730469 C 311.484375 297.421875 311.328125 297.128906 311.144531 296.855469 C 310.960938 296.578125 310.75 296.324219 310.515625 296.089844 C 310.28125 295.851562 310.027344 295.644531 309.75 295.460938 C 309.472656 295.273438 309.183594 295.117188 308.875 294.992188 C 308.570312 294.863281 308.253906 294.769531 307.925781 294.703125 C 307.601562 294.640625 307.273438 294.605469 306.941406 294.605469 C 306.609375 294.605469 306.28125 294.640625 305.953125 294.703125 C 305.628906 294.769531 305.3125 294.863281 305.003906 294.992188 C 304.699219 295.117188 304.40625 295.273438 304.132812 295.460938 C 303.855469 295.644531 303.601562 295.851562 303.363281 296.089844 L 299.671875 299.777344 L 295.980469 296.089844 C 295.746094 295.855469 295.492188 295.648438 295.214844 295.464844 C 294.9375 295.28125 294.648438 295.128906 294.339844 295.003906 C 294.035156 294.878906 293.71875 294.78125 293.394531 294.71875 C 293.070312 294.65625 292.742188 294.625 292.410156 294.625 C 292.078125 294.625 291.753906 294.660156 291.429688 294.722656 C 291.101562 294.789062 290.789062 294.886719 290.484375 295.011719 C 290.175781 295.140625 289.886719 295.296875 289.613281 295.480469 C 289.335938 295.664062 289.082031 295.871094 288.847656 296.105469 C 288.613281 296.339844 288.40625 296.59375 288.222656 296.871094 C 288.039062 297.144531 287.882812 297.433594 287.753906 297.742188 C 287.628906 298.046875 287.53125 298.363281 287.464844 298.6875 C 287.402344 299.011719 287.367188 299.339844 287.367188 299.667969 C 287.367188 300 287.398438 300.328125 287.460938 300.652344 C 287.527344 300.976562 287.621094 301.292969 287.746094 301.597656 C 287.871094 301.90625 288.023438 302.195312 288.207031 302.472656 C 288.390625 302.75 288.597656 303.003906 288.832031 303.238281 L 292.523438 306.929688 L 288.832031 310.621094 C 288.597656 310.855469 288.386719 311.113281 288.203125 311.386719 C 288.015625 311.664062 287.863281 311.957031 287.734375 312.261719 C 287.605469 312.570312 287.511719 312.886719 287.445312 313.210938 C 287.382812 313.535156 287.347656 313.867188 287.347656 314.199219 C 287.347656 314.53125 287.382812 314.859375 287.445312 315.183594 C 287.511719 315.511719 287.605469 315.828125 287.734375 316.132812 C 287.863281 316.441406 288.015625 316.730469 288.203125 317.007812 C 288.386719 317.285156 288.597656 317.539062 288.832031 317.773438 Z M 288.832031 317.773438 " fill-opacity="1" fill-rule="nonzero"/><path fill="#1a66bc" d="M 216.425781 317.769531 C 216.660156 318.003906 216.914062 318.214844 217.191406 318.398438 C 217.46875 318.585938 217.757812 318.738281 218.066406 318.867188 C 218.371094 318.992188 218.6875 319.089844 219.011719 319.15625 C 219.339844 319.21875 219.667969 319.25 220 319.25 C 220.332031 319.25 220.660156 319.21875 220.984375 319.15625 C 221.3125 319.089844 221.628906 318.992188 221.933594 318.867188 C 222.242188 318.738281 222.53125 318.585938 222.808594 318.398438 C 223.085938 318.214844 223.339844 318.003906 223.574219 317.769531 L 227.28125 314.070312 L 230.984375 317.769531 C 231.21875 318.003906 231.476562 318.210938 231.753906 318.394531 C 232.027344 318.574219 232.320312 318.730469 232.625 318.855469 C 232.933594 318.980469 233.246094 319.074219 233.570312 319.136719 C 233.898438 319.199219 234.222656 319.230469 234.554688 319.230469 C 234.886719 319.230469 235.214844 319.195312 235.539062 319.128906 C 235.863281 319.066406 236.175781 318.96875 236.484375 318.839844 C 236.789062 318.714844 237.078125 318.558594 237.351562 318.375 C 237.628906 318.191406 237.882812 317.980469 238.117188 317.746094 C 238.351562 317.511719 238.558594 317.257812 238.742188 316.984375 C 238.925781 316.707031 239.082031 316.417969 239.207031 316.113281 C 239.335938 315.804688 239.429688 315.492188 239.496094 315.167969 C 239.5625 314.84375 239.59375 314.515625 239.59375 314.183594 C 239.59375 313.851562 239.5625 313.527344 239.5 313.199219 C 239.4375 312.875 239.339844 312.5625 239.214844 312.253906 C 239.089844 311.949219 238.9375 311.65625 238.753906 311.382812 C 238.570312 311.105469 238.363281 310.851562 238.128906 310.617188 L 234.429688 306.925781 L 238.128906 303.238281 C 238.363281 303.003906 238.570312 302.746094 238.753906 302.472656 C 238.9375 302.195312 239.089844 301.902344 239.214844 301.597656 C 239.339844 301.292969 239.4375 300.976562 239.5 300.652344 C 239.5625 300.328125 239.59375 300 239.59375 299.667969 C 239.59375 299.335938 239.5625 299.011719 239.496094 298.6875 C 239.429688 298.359375 239.335938 298.046875 239.207031 297.742188 C 239.082031 297.433594 238.925781 297.144531 238.742188 296.871094 C 238.558594 296.59375 238.351562 296.339844 238.117188 296.105469 C 237.882812 295.871094 237.628906 295.664062 237.351562 295.480469 C 237.078125 295.292969 236.789062 295.140625 236.484375 295.011719 C 236.175781 294.882812 235.863281 294.789062 235.539062 294.722656 C 235.214844 294.65625 234.886719 294.625 234.554688 294.621094 C 234.222656 294.621094 233.898438 294.652344 233.570312 294.714844 C 233.246094 294.777344 232.933594 294.875 232.625 295 C 232.320312 295.125 232.027344 295.277344 231.753906 295.460938 C 231.476562 295.640625 231.21875 295.847656 230.984375 296.082031 L 227.28125 299.78125 L 223.574219 296.082031 C 223.339844 295.84375 223.085938 295.628906 222.808594 295.4375 C 222.535156 295.25 222.242188 295.089844 221.933594 294.957031 C 221.625 294.828125 221.308594 294.726562 220.980469 294.660156 C 220.652344 294.59375 220.320312 294.558594 219.984375 294.554688 C 219.648438 294.554688 219.316406 294.585938 218.988281 294.648438 C 218.660156 294.710938 218.339844 294.808594 218.03125 294.933594 C 217.722656 295.0625 217.429688 295.21875 217.148438 295.40625 C 216.871094 295.589844 216.613281 295.800781 216.375 296.039062 C 216.140625 296.277344 215.929688 296.535156 215.742188 296.8125 C 215.558594 297.089844 215.402344 297.386719 215.277344 297.695312 C 215.148438 298.003906 215.054688 298.324219 214.988281 298.652344 C 214.925781 298.984375 214.894531 299.316406 214.898438 299.648438 C 214.902344 299.984375 214.9375 300.316406 215.003906 300.644531 C 215.074219 300.972656 215.171875 301.289062 215.304688 301.597656 C 215.4375 301.90625 215.597656 302.195312 215.785156 302.472656 C 215.976562 302.75 216.191406 303.003906 216.429688 303.238281 L 220.128906 306.925781 L 216.429688 310.617188 C 216.195312 310.851562 215.984375 311.105469 215.800781 311.382812 C 215.613281 311.65625 215.457031 311.949219 215.332031 312.253906 C 215.203125 312.5625 215.105469 312.878906 215.042969 313.203125 C 214.976562 313.53125 214.945312 313.859375 214.945312 314.191406 C 214.945312 314.523438 214.976562 314.851562 215.039062 315.179688 C 215.105469 315.503906 215.199219 315.820312 215.328125 316.128906 C 215.453125 316.4375 215.609375 316.726562 215.796875 317.003906 C 215.980469 317.28125 216.191406 317.535156 216.425781 317.769531 Z M 216.425781 317.769531 " fill-opacity="1" fill-rule="nonzero"/><path fill="#1a66bc" d="M 124 202.464844 L 153.898438 210.476562 L 129.746094 217.601562 C 129.429688 217.695312 129.121094 217.820312 128.828125 217.972656 C 128.53125 218.125 128.253906 218.308594 127.996094 218.515625 C 127.738281 218.726562 127.5 218.957031 127.289062 219.210938 C 127.074219 219.46875 126.890625 219.742188 126.730469 220.03125 C 126.570312 220.324219 126.441406 220.628906 126.34375 220.945312 C 126.242188 221.261719 126.175781 221.585938 126.140625 221.917969 C 126.105469 222.25 126.105469 222.578125 126.132812 222.910156 C 126.164062 223.242188 126.226562 223.566406 126.320312 223.882812 C 126.414062 224.203125 126.539062 224.511719 126.691406 224.804688 C 126.847656 225.097656 127.027344 225.375 127.238281 225.632812 C 127.445312 225.890625 127.679688 226.128906 127.933594 226.339844 C 128.191406 226.550781 128.464844 226.738281 128.757812 226.898438 C 129.046875 227.054688 129.351562 227.183594 129.671875 227.28125 C 129.988281 227.382812 130.3125 227.449219 130.640625 227.480469 C 130.972656 227.515625 131.304688 227.519531 131.632812 227.488281 C 131.964844 227.457031 132.289062 227.394531 132.609375 227.300781 L 158.972656 219.523438 C 159.367188 219.40625 159.738281 219.246094 160.09375 219.039062 C 160.449219 218.835938 160.773438 218.589844 161.066406 218.304688 C 161.359375 218.019531 161.617188 217.703125 161.832031 217.359375 C 162.050781 217.011719 162.222656 216.644531 162.351562 216.253906 C 162.476562 215.863281 162.558594 215.464844 162.589844 215.058594 C 162.617188 214.648438 162.601562 214.242188 162.53125 213.839844 C 162.464844 213.4375 162.347656 213.046875 162.183594 212.671875 C 162.023438 212.296875 161.816406 211.945312 161.570312 211.621094 C 161.921875 211.496094 162.257812 211.335938 162.574219 211.136719 C 162.894531 210.941406 163.183594 210.710938 163.453125 210.445312 C 163.71875 210.183594 163.953125 209.894531 164.15625 209.578125 C 164.355469 209.265625 164.523438 208.929688 164.648438 208.578125 C 164.777344 208.226562 164.867188 207.867188 164.914062 207.496094 C 164.960938 207.125 164.964844 206.75 164.929688 206.378906 C 164.894531 206.003906 164.820312 205.640625 164.703125 205.285156 C 164.585938 204.929688 164.433594 204.589844 164.242188 204.269531 C 164.550781 204.066406 164.832031 203.832031 165.089844 203.566406 C 165.347656 203.300781 165.574219 203.011719 165.769531 202.699219 C 165.960938 202.382812 166.117188 202.050781 166.238281 201.703125 C 166.359375 201.351562 166.441406 200.996094 166.484375 200.628906 C 166.527344 200.261719 166.527344 199.894531 166.488281 199.527344 C 166.449219 199.15625 166.371094 198.800781 166.253906 198.449219 C 166.136719 198.097656 165.980469 197.765625 165.789062 197.449219 C 165.597656 197.132812 165.375 196.839844 165.121094 196.574219 L 146.199219 176.65625 C 145.972656 176.414062 145.722656 176.199219 145.449219 176.007812 C 145.179688 175.816406 144.894531 175.652344 144.589844 175.519531 C 144.285156 175.382812 143.972656 175.277344 143.648438 175.207031 C 143.324219 175.132812 142.996094 175.09375 142.664062 175.082031 C 142.332031 175.074219 142.003906 175.097656 141.675781 175.15625 C 141.347656 175.210938 141.03125 175.300781 140.71875 175.417969 C 140.410156 175.539062 140.117188 175.6875 139.835938 175.863281 C 139.554688 176.039062 139.292969 176.242188 139.050781 176.472656 C 138.8125 176.699219 138.59375 176.949219 138.402344 177.222656 C 138.210938 177.492188 138.050781 177.78125 137.914062 178.082031 C 137.78125 178.386719 137.675781 178.699219 137.601562 179.023438 C 137.527344 179.347656 137.488281 179.675781 137.480469 180.007812 C 137.472656 180.339844 137.496094 180.667969 137.550781 180.996094 C 137.609375 181.324219 137.695312 181.640625 137.816406 181.953125 C 137.933594 182.261719 138.082031 182.558594 138.257812 182.839844 C 138.4375 183.117188 138.640625 183.378906 138.867188 183.621094 L 154.617188 200.203125 L 126.609375 192.699219 C 126.285156 192.609375 125.960938 192.554688 125.628906 192.53125 C 125.296875 192.511719 124.964844 192.519531 124.636719 192.5625 C 124.304688 192.605469 123.980469 192.679688 123.667969 192.785156 C 123.351562 192.890625 123.050781 193.027344 122.761719 193.195312 C 122.472656 193.359375 122.203125 193.550781 121.953125 193.769531 C 121.703125 193.992188 121.476562 194.230469 121.273438 194.496094 C 121.070312 194.757812 120.894531 195.039062 120.746094 195.339844 C 120.601562 195.636719 120.484375 195.949219 120.398438 196.269531 C 120.3125 196.589844 120.257812 196.917969 120.234375 197.25 C 120.214844 197.582031 120.226562 197.914062 120.269531 198.242188 C 120.3125 198.570312 120.386719 198.894531 120.496094 199.210938 C 120.601562 199.523438 120.738281 199.824219 120.90625 200.113281 C 121.074219 200.402344 121.265625 200.671875 121.488281 200.921875 C 121.707031 201.171875 121.949219 201.394531 122.214844 201.597656 C 122.480469 201.800781 122.761719 201.972656 123.058594 202.121094 C 123.359375 202.265625 123.667969 202.382812 123.992188 202.464844 Z M 124 202.464844 " fill-opacity="1" fill-rule="nonzero"/><path fill="#1a66bc" d="M 252.640625 317.773438 C 252.875 318.007812 253.128906 318.21875 253.40625 318.402344 C 253.679688 318.585938 253.972656 318.742188 254.28125 318.871094 C 254.585938 318.996094 254.902344 319.09375 255.226562 319.15625 C 255.554688 319.222656 255.882812 319.253906 256.214844 319.253906 C 256.546875 319.253906 256.875 319.222656 257.199219 319.15625 C 257.527344 319.09375 257.84375 318.996094 258.148438 318.871094 C 258.457031 318.742188 258.746094 318.585938 259.023438 318.402344 C 259.300781 318.21875 259.554688 318.007812 259.789062 317.773438 L 263.480469 314.082031 L 267.171875 317.773438 C 267.40625 318.007812 267.664062 318.214844 267.9375 318.402344 C 268.214844 318.585938 268.507812 318.742188 268.8125 318.867188 C 269.121094 318.996094 269.4375 319.089844 269.761719 319.15625 C 270.085938 319.21875 270.414062 319.25 270.746094 319.25 C 271.078125 319.25 271.40625 319.21875 271.734375 319.152344 C 272.058594 319.089844 272.375 318.992188 272.679688 318.867188 C 272.988281 318.738281 273.277344 318.582031 273.554688 318.398438 C 273.832031 318.214844 274.085938 318.003906 274.320312 317.769531 C 274.554688 317.535156 274.765625 317.28125 274.949219 317.003906 C 275.132812 316.726562 275.289062 316.4375 275.417969 316.128906 C 275.542969 315.824219 275.640625 315.507812 275.703125 315.183594 C 275.769531 314.855469 275.800781 314.527344 275.800781 314.195312 C 275.800781 313.863281 275.769531 313.535156 275.707031 313.210938 C 275.640625 312.886719 275.546875 312.570312 275.417969 312.261719 C 275.292969 311.957031 275.136719 311.664062 274.953125 311.386719 C 274.769531 311.113281 274.558594 310.855469 274.324219 310.621094 L 270.632812 306.929688 L 274.324219 303.238281 C 274.558594 303.003906 274.769531 302.75 274.953125 302.472656 C 275.136719 302.195312 275.292969 301.90625 275.417969 301.597656 C 275.546875 301.292969 275.640625 300.976562 275.707031 300.652344 C 275.769531 300.324219 275.800781 299.996094 275.800781 299.664062 C 275.800781 299.332031 275.769531 299.003906 275.703125 298.679688 C 275.640625 298.351562 275.542969 298.035156 275.417969 297.730469 C 275.289062 297.425781 275.132812 297.132812 274.949219 296.855469 C 274.765625 296.582031 274.554688 296.324219 274.320312 296.089844 C 274.085938 295.855469 273.832031 295.648438 273.554688 295.460938 C 273.277344 295.277344 272.988281 295.121094 272.679688 294.996094 C 272.375 294.867188 272.058594 294.773438 271.734375 294.707031 C 271.40625 294.640625 271.078125 294.609375 270.746094 294.609375 C 270.414062 294.609375 270.085938 294.640625 269.761719 294.707031 C 269.4375 294.769531 269.121094 294.867188 268.8125 294.992188 C 268.507812 295.121094 268.214844 295.277344 267.9375 295.460938 C 267.664062 295.644531 267.40625 295.855469 267.171875 296.089844 L 263.480469 299.777344 L 259.789062 296.089844 C 259.554688 295.855469 259.300781 295.644531 259.023438 295.460938 C 258.746094 295.277344 258.457031 295.121094 258.148438 294.992188 C 257.84375 294.867188 257.527344 294.769531 257.203125 294.707031 C 256.875 294.640625 256.546875 294.609375 256.214844 294.609375 C 255.882812 294.609375 255.554688 294.640625 255.230469 294.707031 C 254.902344 294.773438 254.589844 294.867188 254.28125 294.996094 C 253.976562 295.121094 253.683594 295.277344 253.40625 295.460938 C 253.132812 295.648438 252.875 295.855469 252.640625 296.089844 C 252.40625 296.324219 252.199219 296.582031 252.011719 296.855469 C 251.828125 297.132812 251.671875 297.425781 251.546875 297.730469 C 251.417969 298.035156 251.324219 298.351562 251.257812 298.679688 C 251.191406 299.003906 251.160156 299.332031 251.160156 299.664062 C 251.160156 299.996094 251.191406 300.324219 251.257812 300.652344 C 251.320312 300.976562 251.417969 301.292969 251.542969 301.597656 C 251.671875 301.90625 251.828125 302.195312 252.011719 302.472656 C 252.195312 302.75 252.40625 303.003906 252.640625 303.238281 L 256.332031 306.929688 L 252.640625 310.621094 C 252.402344 310.855469 252.195312 311.113281 252.011719 311.386719 C 251.824219 311.664062 251.667969 311.957031 251.542969 312.261719 C 251.414062 312.570312 251.320312 312.886719 251.253906 313.210938 C 251.191406 313.535156 251.15625 313.867188 251.15625 314.199219 C 251.15625 314.53125 251.191406 314.859375 251.253906 315.183594 C 251.320312 315.511719 251.414062 315.828125 251.542969 316.132812 C 251.667969 316.441406 251.824219 316.730469 252.011719 317.007812 C 252.195312 317.285156 252.402344 317.539062 252.640625 317.773438 Z M 252.640625 317.773438 " fill-opacity="1" fill-rule="nonzero"/></svg>